<?xml version="1.0" encoding="UTF-8" standalone="no"?>
<svg
   xmlns:dc="http://purl.org/dc/elements/1.1/"
   xmlns:cc="http://creativecommons.org/ns#"
   xmlns:rdf="http://www.w3.org/1999/02/22-rdf-syntax-ns#"
   xmlns:svg="http://www.w3.org/2000/svg"
   xmlns="http://www.w3.org/2000/svg"
   xmlns:sodipodi="http://sodipodi.sourceforge.net/DTD/sodipodi-0.dtd"
   xmlns:inkscape="http://www.inkscape.org/namespaces/inkscape"
   version="1.1"
   x="0px"
   y="0px"
   viewBox="0 0 50 50"
   enable-background="new 0 0 100 100"
   xml:space="preserve"
   id="svg2"
   inkscape:version="0.91 r13725"
   sodipodi:docname="drone.svg"
   width="50"
   height="50"
   inkscape:export-filename="/home/guillaume/Documents/PPE/githubdev/skysentinel9/public/app/pages/dashboard/informationsSystem/drone.svg.png"
   inkscape:export-xdpi="90.606506"
   inkscape:export-ydpi="90.606506"><metadata
     id="metadata20"><rdf:RDF><cc:Work
         rdf:about=""><dc:format>image/svg+xml</dc:format><dc:type
           rdf:resource="http://purl.org/dc/dcmitype/StillImage" /><dc:title /></cc:Work></rdf:RDF></metadata><defs
     id="defs18" /><sodipodi:namedview
     pagecolor="#ffffff"
     bordercolor="#666666"
     borderopacity="1"
     objecttolerance="10"
     gridtolerance="10"
     guidetolerance="10"
     inkscape:pageopacity="0"
     inkscape:pageshadow="2"
     inkscape:window-width="1215"
     inkscape:window-height="776"
     id="namedview16"
     showgrid="false"
     inkscape:zoom="1.888"
     inkscape:cx="-61.900597"
     inkscape:cy="82.989837"
     inkscape:window-x="65"
     inkscape:window-y="24"
     inkscape:window-maximized="1"
     inkscape:current-layer="svg2" /><g
     display="none"
     id="g4"
     style="display:none"
     transform="translate(0,-75)"><path
       display="inline"
       d="m 94.936,32.25 -22.879,8.623 0,-7.869 c 0,-4.341 -3.532,-7.873 -7.871,-7.873 l -51.249,0 c -4.339,0 -7.872,3.532 -7.872,7.873 l 0,33.992 c 0,4.342 3.533,7.873 7.872,7.873 l 51.249,0 c 4.339,0 7.871,-3.531 7.871,-7.873 l 0,-7.629 22.879,8.357 0,-35.474 z M 68.908,66.996 c 0,2.605 -2.121,4.723 -4.723,4.723 l -51.248,0 c -2.604,0 -4.723,-2.117 -4.723,-4.723 l 0,-33.992 c 0,-2.605 2.118,-4.724 4.723,-4.724 l 51.249,0 c 2.602,0 4.723,2.118 4.723,4.724 l 0,33.992 z m 22.879,-3.773 -19.567,-7.147 0,-11.902 19.567,-7.372 0,26.421 z"
       id="path6"
       inkscape:connector-curvature="0"
       style="display:inline" /></g><g
     id="g8"
     transform="matrix(0.59698511,0,0,0.61327631,-4.1495514,-5.6635705)"><path
       d="m 87.165,26.958 c -1.761,-1.501 -3.498,-2.655 -4.812,-3.26 0.275,-0.594 0.43,-1.257 0.43,-1.955 0,-2.573 -2.086,-4.661 -4.659,-4.661 -0.795,0 -1.541,0.2 -2.195,0.55 -0.797,-1.214 -2.234,-2.781 -4.031,-4.316 -3.19,-2.722 -6.309,-4.306 -6.963,-3.538 -0.656,0.768 1.398,3.597 4.591,6.32 1.686,1.438 3.35,2.558 4.642,3.181 -0.445,0.715 -0.704,1.559 -0.704,2.463 0,0.603 0.116,1.178 0.324,1.707 -6.988,7.52 -14.265,11.807 -17.685,13.575 -1.996,-1.021 -4.254,-1.601 -6.65,-1.601 -1.965,0 -3.839,0.391 -5.552,1.094 -6.535,-2.863 -14.313,-10.022 -17.862,-13.495 0.116,-0.407 0.18,-0.836 0.18,-1.28 0,-0.758 -0.182,-1.473 -0.503,-2.105 1.273,-0.693 2.938,-1.977 4.603,-3.614 2.99,-2.941 4.839,-5.91 4.131,-6.63 -0.709,-0.719 -3.706,1.083 -6.696,4.024 -1.618,1.592 -2.901,3.19 -3.625,4.438 -0.737,-0.488 -1.619,-0.773 -2.57,-0.773 -2.574,0 -4.661,2.087 -4.661,4.661 0,0.757 0.182,1.471 0.503,2.104 -1.268,0.698 -2.918,1.971 -4.565,3.593 -2.989,2.942 -4.838,5.91 -4.13,6.629 0.708,0.72 3.705,-1.082 6.694,-4.024 1.604,-1.577 2.878,-3.162 3.607,-4.404 0.733,0.481 1.609,0.762 2.552,0.762 0.544,0 1.065,-0.093 1.55,-0.265 7.364,6.527 11.731,13.346 13.623,16.703 -1.208,2.127 -1.902,4.585 -1.902,7.207 0,2.149 0.468,4.19 1.301,6.028 -2.831,6.402 -9.692,13.961 -13.189,17.576 -0.437,-0.134 -0.901,-0.208 -1.383,-0.208 -0.856,0 -1.657,0.231 -2.347,0.635 -0.74,-1.254 -2.202,-2.936 -4.065,-4.59 -3.138,-2.784 -6.224,-4.429 -6.894,-3.673 -0.671,0.755 1.33,3.623 4.467,6.408 1.792,1.589 3.565,2.805 4.883,3.418 -0.447,0.714 -0.705,1.558 -0.705,2.462 0,2.573 2.087,4.66 4.661,4.66 0.888,0 1.717,-0.248 2.423,-0.679 0.803,1.181 2.118,2.638 3.737,4.075 3.137,2.783 6.223,4.427 6.894,3.673 0.67,-0.756 -1.331,-3.624 -4.468,-6.409 -1.597,-1.415 -3.179,-2.536 -4.438,-3.196 0.327,-0.638 0.513,-1.359 0.513,-2.124 0,-0.51 -0.083,-1 -0.234,-1.459 6.561,-7.419 13.409,-11.791 16.693,-13.64 2.025,1.063 4.33,1.665 6.775,1.665 2.465,0 4.785,-0.612 6.823,-1.688 6.436,3.255 13.808,10.456 17.066,13.828 -0.118,0.411 -0.183,0.845 -0.183,1.294 0,0.798 0.2,1.55 0.555,2.207 -1.233,0.737 -2.793,2.007 -4.345,3.595 -2.932,3 -4.724,6.003 -4.001,6.709 0.723,0.705 3.685,-1.155 6.615,-4.154 1.522,-1.558 2.735,-3.116 3.45,-4.354 0.697,0.417 1.513,0.657 2.386,0.657 2.573,0 4.658,-2.087 4.658,-4.66 0,-0.783 -0.192,-1.521 -0.534,-2.167 1.278,-0.696 2.984,-2.051 4.682,-3.787 2.931,-3.001 4.724,-6.004 4,-6.71 -0.722,-0.706 -3.684,1.156 -6.615,4.155 -1.639,1.677 -2.92,3.354 -3.606,4.631 -0.74,-0.493 -1.629,-0.782 -2.584,-0.782 -0.535,0 -1.048,0.092 -1.525,0.257 -7.58,-7.034 -11.858,-14.328 -13.539,-17.579 0.847,-1.85 1.322,-3.906 1.322,-6.074 0,-2.266 -0.516,-4.412 -1.437,-6.327 C 66.084,36.995 73.9,29.259 77.06,26.28 c 0.343,0.08 0.698,0.123 1.064,0.123 1.011,0 1.946,-0.323 2.71,-0.87 0.808,1.198 2.212,2.719 3.958,4.208 3.191,2.722 6.31,4.306 6.964,3.538 0.655,-0.769 -1.402,-3.598 -4.591,-6.321 z M 21.593,22.73 c -0.579,0 -1.048,-0.47 -1.048,-1.049 0,-0.579 0.47,-1.049 1.048,-1.049 0.58,0 1.05,0.47 1.05,1.049 0,0.579 -0.47,1.049 -1.05,1.049 z m 0.051,56.344 c -0.579,0 -1.049,-0.47 -1.049,-1.049 0,-0.579 0.47,-1.05 1.049,-1.05 0.58,0 1.05,0.471 1.05,1.05 0,0.579 -0.47,1.049 -1.05,1.049 z m 56.142,-2.013 c 0.58,0 1.05,0.471 1.05,1.049 0,0.58 -0.47,1.051 -1.05,1.051 -0.579,0 -1.048,-0.471 -1.048,-1.051 0,-0.579 0.469,-1.049 1.048,-1.049 z M 78.159,22.73 c -0.58,0 -1.05,-0.47 -1.05,-1.049 0,-0.58 0.47,-1.05 1.05,-1.05 0.579,0 1.048,0.47 1.048,1.05 0,0.579 -0.469,1.049 -1.048,1.049 z"
       id="path10"
       inkscape:connector-curvature="0" /></g></svg>