<?xml version="1.0" encoding="UTF-8" standalone="no"?>
<svg
   xmlns:dc="http://purl.org/dc/elements/1.1/"
   xmlns:cc="http://creativecommons.org/ns#"
   xmlns:rdf="http://www.w3.org/1999/02/22-rdf-syntax-ns#"
   xmlns:svg="http://www.w3.org/2000/svg"
   xmlns="http://www.w3.org/2000/svg"
   xmlns:sodipodi="http://sodipodi.sourceforge.net/DTD/sodipodi-0.dtd"
   xmlns:inkscape="http://www.inkscape.org/namespaces/inkscape"
   version="1.1"
   x="0px"
   y="0px"
   viewBox="0 0 48 48"
   enable-background="new 0 0 100 100"
   xml:space="preserve"
   id="svg2"
   inkscape:version="0.91 r13725"
   sodipodi:docname="noun_209086_cc.svg"
   width="48"
   height="48"><metadata
     id="metadata34"><rdf:RDF><cc:Work
         rdf:about=""><dc:format>image/svg+xml</dc:format><dc:type
           rdf:resource="http://purl.org/dc/dcmitype/StillImage" /><dc:title></dc:title></cc:Work></rdf:RDF></metadata><defs
     id="defs32" /><sodipodi:namedview
     pagecolor="#ffffff"
     bordercolor="#666666"
     borderopacity="1"
     objecttolerance="10"
     gridtolerance="10"
     guidetolerance="10"
     inkscape:pageopacity="0"
     inkscape:pageshadow="2"
     inkscape:window-width="1215"
     inkscape:window-height="776"
     id="namedview30"
     showgrid="false"
     inkscape:zoom="3.776"
     inkscape:cx="40.648942"
     inkscape:cy="62.810268"
     inkscape:window-x="65"
     inkscape:window-y="24"
     inkscape:window-maximized="1"
     inkscape:current-layer="svg2" /><g
     id="g4"
     transform="matrix(0.63001221,0,0,0.63001221,-7.5002954,-7.51971)"
     style="fill:#1c2b36;fill-opacity:1"><path
       d="m 86.397,83.511 -6.959,0 -10.711,-7.898 C 68.456,75.412 68.086,75.412 67.814,75.611 L 62.852,79.229 51.426,65.227 c -0.147,-0.18 -0.367,-0.284 -0.598,-0.284 -0.231,0 -0.451,0.104 -0.598,0.284 l -6.774,8.3 -4.731,-3.804 c -0.309,-0.247 -0.754,-0.222 -1.03,0.057 l -6.469,6.484 -3.617,-2.249 c -0.329,-0.204 -0.757,-0.134 -1.004,0.166 l -7.647,9.331 -5.818,0 c -0.682,0 -1.235,0.553 -1.235,1.235 0,0.682 0.552,1.235 1.235,1.235 l 73.256,0 c 0.682,0 1.235,-0.553 1.235,-1.235 0,-0.682 -0.552,-1.236 -1.234,-1.236 z m -59.028,-7.828 3.563,2.216 c 0.303,0.189 0.701,0.145 0.954,-0.11 l 6.412,-6.428 4.182,3.362 -2.55,3.124 c -0.269,0.33 -0.221,0.816 0.11,1.086 0.329,0.268 0.815,0.221 1.086,-0.11 l 3.02,-3.7 c 0.009,-0.01 0.022,-0.015 0.031,-0.026 0.008,-0.01 0.01,-0.023 0.017,-0.033 l 6.634,-8.128 11.29,13.836 c 0.258,0.318 0.723,0.377 1.053,0.136 l 5.095,-3.715 8.571,6.32 -55.884,0 6.416,-7.83 z"
       id="path6"
       inkscape:connector-curvature="0"
       style="fill:#1c2b36;fill-opacity:1" /><path
       d="m 87.014,35.57 -2.469,0 c -0.597,0 -1.08,0.483 -1.08,1.08 0,0.597 0.483,1.08 1.08,1.08 l 2.469,0 c 0.597,0 1.08,-0.483 1.08,-1.08 0,-0.597 -0.483,-1.08 -1.08,-1.08 z"
       id="path8"
       inkscape:connector-curvature="0"
       style="fill:#1c2b36;fill-opacity:1" /><path
       d="m 72.631,37.731 5.296,0 c 0.597,0 1.08,-0.483 1.08,-1.08 0,-0.597 -0.483,-1.08 -1.08,-1.08 l -5.296,0 c -0.597,0 -1.08,0.483 -1.08,1.08 0,0.596 0.483,1.08 1.08,1.08 z"
       id="path10"
       inkscape:connector-curvature="0"
       style="fill:#1c2b36;fill-opacity:1" /><path
       d="m 48.802,37.731 5.296,0 c 0.597,0 1.08,-0.483 1.08,-1.08 0,-0.597 -0.483,-1.08 -1.08,-1.08 l -5.296,0 c -0.597,0 -1.08,0.483 -1.08,1.08 0,0.596 0.483,1.08 1.08,1.08 z"
       id="path12"
       inkscape:connector-curvature="0"
       style="fill:#1c2b36;fill-opacity:1" /><path
       d="m 60.717,35.57 c -0.597,0 -1.08,0.483 -1.08,1.08 0,0.597 0.483,1.08 1.08,1.08 l 5.294,0 c 0.597,0 1.08,-0.483 1.08,-1.08 0,-0.597 -0.483,-1.08 -1.08,-1.08 l -5.294,0 z"
       id="path14"
       inkscape:connector-curvature="0"
       style="fill:#1c2b36;fill-opacity:1" /><path
       d="m 36.888,37.731 5.294,0 c 0.597,0 1.08,-0.483 1.08,-1.08 0,-0.597 -0.483,-1.08 -1.08,-1.08 l -5.294,0 c -0.597,0 -1.08,0.483 -1.08,1.08 0,0.596 0.483,1.08 1.08,1.08 z"
       id="path16"
       inkscape:connector-curvature="0"
       style="fill:#1c2b36;fill-opacity:1" /><path
       d="m 24.973,37.731 5.296,0 c 0.597,0 1.08,-0.483 1.08,-1.08 0,-0.597 -0.483,-1.08 -1.08,-1.08 l -5.296,0 c -0.597,0 -1.08,0.483 -1.08,1.08 0,0.596 0.483,1.08 1.08,1.08 z"
       id="path18"
       inkscape:connector-curvature="0"
       style="fill:#1c2b36;fill-opacity:1" /><path
       d="m 15.885,37.731 2.469,0 c 0.597,0 1.08,-0.483 1.08,-1.08 0,-0.597 -0.483,-1.08 -1.08,-1.08 l -2.469,0 c -0.597,0 -1.08,0.483 -1.08,1.08 -10e-4,0.596 0.483,1.08 1.08,1.08 z"
       id="path20"
       inkscape:connector-curvature="0"
       style="fill:#1c2b36;fill-opacity:1" /><path
       d="m 58.267,48.211 3.951,-3.951 0,30.352 c 0,0.682 0.552,1.235 1.235,1.235 0.682,0 1.235,-0.553 1.235,-1.235 l 0,-30.351 3.951,3.951 c 0.241,0.241 0.557,0.362 0.873,0.362 0.316,0 0.632,-0.121 0.873,-0.362 0.482,-0.482 0.482,-1.264 0,-1.746 l -6.058,-6.057 c -0.114,-0.114 -0.251,-0.205 -0.402,-0.268 -0.302,-0.125 -0.642,-0.125 -0.943,0 -0.152,0.063 -0.288,0.153 -0.402,0.268 l -6.058,6.057 c -0.482,0.482 -0.482,1.264 0,1.746 0.481,0.482 1.263,0.482 1.745,-0.001 z"
       id="path22"
       inkscape:connector-curvature="0"
       style="fill:#1c2b36;fill-opacity:1" /><path
       d="m 62.579,32.793 c 0.114,0.114 0.251,0.205 0.402,0.268 0.151,0.062 0.311,0.095 0.472,0.095 0.161,0 0.321,-0.033 0.472,-0.095 0.152,-0.063 0.288,-0.153 0.402,-0.268 l 6.058,-6.057 c 0.482,-0.482 0.482,-1.264 0,-1.746 -0.482,-0.482 -1.264,-0.482 -1.746,0 l -3.951,3.951 0,-13.687 c 0,-0.682 -0.552,-1.235 -1.235,-1.235 -0.682,0 -1.235,0.553 -1.235,1.235 l 0,13.687 -3.951,-3.951 c -0.482,-0.482 -1.264,-0.482 -1.746,0 -0.482,0.482 -0.482,1.264 0,1.746 l 6.058,6.057 z"
       id="path24"
       inkscape:connector-curvature="0"
       style="fill:#1c2b36;fill-opacity:1" /></g></svg>