<?xml version="1.0" encoding="UTF-8" standalone="no"?>
<svg
   xmlns:dc="http://purl.org/dc/elements/1.1/"
   xmlns:cc="http://creativecommons.org/ns#"
   xmlns:rdf="http://www.w3.org/1999/02/22-rdf-syntax-ns#"
   xmlns:svg="http://www.w3.org/2000/svg"
   xmlns="http://www.w3.org/2000/svg"
   xmlns:sodipodi="http://sodipodi.sourceforge.net/DTD/sodipodi-0.dtd"
   xmlns:inkscape="http://www.inkscape.org/namespaces/inkscape"
   version="1.1"
   x="0px"
   y="0px"
   viewBox="0 0 48 48"
   enable-background="new 0 0 62.5 100"
   xml:space="preserve"
   id="svg2"
   inkscape:version="0.91 r13725"
   sodipodi:docname="batteryFull.svg"
   width="48"
   height="48"><metadata
     id="metadata10"><rdf:RDF><cc:Work
         rdf:about=""><dc:format>image/svg+xml</dc:format><dc:type
           rdf:resource="http://purl.org/dc/dcmitype/StillImage" /><dc:title></dc:title></cc:Work></rdf:RDF></metadata><defs
     id="defs8" /><sodipodi:namedview
     pagecolor="#ffffff"
     bordercolor="#666666"
     borderopacity="1"
     objecttolerance="10"
     gridtolerance="10"
     guidetolerance="10"
     inkscape:pageopacity="0"
     inkscape:pageshadow="2"
     inkscape:window-width="1215"
     inkscape:window-height="776"
     id="namedview6"
     showgrid="false"
     inkscape:zoom="8.34"
     inkscape:cx="23.869064"
     inkscape:cy="19.174464"
     inkscape:window-x="65"
     inkscape:window-y="24"
     inkscape:window-maximized="1"
     inkscape:current-layer="svg2" /><path
     d="M 38.17488,6.82512 C 37.60032,6.27504 36.71232,6 35.51232,6 L 30,6 30,3.48768 C 30,2.28768 29.72544,1.40016 29.17488,0.82512 28.60032,0.27504 27.71232,0 26.51232,0 l -5.02464,0 c -1.2,0 -2.08752,0.27504 -2.66256,0.82512 C 18.27504,1.40016 18,2.28768 18,3.48768 L 18,6 12.48768,6 c -1.2,0 -2.08752,0.27504 -2.66256,0.82512 C 9.27504,7.40016 9,8.28768 9,9.48768 L 9,44.5128 c 0,1.2 0.27504,2.088 0.82512,2.66256 C 10.40016,47.72544 11.28768,48 12.48768,48 l 23.02512,0 c 1.2,0 2.088,-0.27456 2.66256,-0.82512 0.55008,-0.57456 0.82512,-1.46256 0.82512,-2.66256 l 0,-35.02464 C 39,8.28768 38.72544,7.40016 38.17488,6.82512 M 15,12 l 18,0 0,30 -18,0 0,-30"
     id="path4"
     inkscape:connector-curvature="0"
     style="fill:#1c2b36;fill-opacity:1" /><rect
     style="fill:#ffffff;fill-opacity:1;stroke:#ffffff;stroke-width:0.10468581;stroke-miterlimit:4;stroke-dasharray:none;stroke-opacity:1"
     id="rect4133"
     width="23.895315"
     height="37.895313"
     x="12.052343"
     y="8.0523434" /><rect
     style="fill:#ffffff;fill-opacity:1;stroke:#ffffff;stroke-width:0.1;stroke-miterlimit:4;stroke-dasharray:none;stroke-opacity:1"
     id="rect4135"
     width="0.63559324"
     height="0.95338982"
     x="-13.241526"
     y="11.347458" /><rect
     style="fill:#1c2b36;fill-opacity:1;stroke:#ffffff;stroke-width:0.14359654;stroke-miterlimit:4;stroke-dasharray:none;stroke-opacity:1"
     id="rect4137"
     width="23.056404"
     height="8.8564043"
     x="12.471799"
     y="36.671791" /><rect
     style="fill:#1c2b36;fill-opacity:1;stroke:#ffffff;stroke-width:0.14359654;stroke-miterlimit:4;stroke-dasharray:none;stroke-opacity:1"
     id="rect4137-3"
     width="23.056404"
     height="8.8564043"
     x="12.471798"
     y="27.271797" /><rect
     style="fill:#1c2b36;fill-opacity:1;stroke:#ffffff;stroke-width:0.14359654;stroke-miterlimit:4;stroke-dasharray:none;stroke-opacity:1"
     id="rect4137-3-6"
     width="23.056404"
     height="8.8564043"
     x="12.471798"
     y="17.871798" /><rect
     style="fill:#1c2b36;fill-opacity:1;stroke:#ffffff;stroke-width:0.14359654;stroke-miterlimit:4;stroke-dasharray:none;stroke-opacity:1"
     id="rect4137-3-6-7"
     width="23.056404"
     height="8.8564043"
     x="12.471798"
     y="8.471797" /></svg>