<?xml version="1.0" encoding="utf-8"?><!DOCTYPE svg PUBLIC "-//W3C//DTD SVG 1.1//EN" "http://www.w3.org/Graphics/SVG/1.1/DTD/svg11.dtd"><svg version="1.1" xmlns="http://www.w3.org/2000/svg" xmlns:xlink="http://www.w3.org/1999/xlink" x="0px" y="0px" viewBox="0 0 100 100" enable-background="new 0 0 100 100" xml:space="preserve"><path d="M79.531,14.219c-1.197-1.146-3.047-1.719-5.547-1.719H62.5V7.266c0-2.5-0.572-4.349-1.719-5.547
	C59.584,0.573,57.734,0,55.234,0H44.766c-2.5,0-4.349,0.573-5.547,1.719C38.073,2.917,37.5,4.766,37.5,7.266V12.5H26.016
	c-2.5,0-4.349,0.573-5.547,1.719c-1.146,1.198-1.719,3.047-1.719,5.547v72.969c0,2.5,0.573,4.35,1.719,5.547
	c1.198,1.146,3.047,1.719,5.547,1.719h47.969c2.5,0,4.35-0.572,5.547-1.719c1.146-1.197,1.719-3.047,1.719-5.547V19.766
	C81.25,17.266,80.678,15.417,79.531,14.219z M68.75,87.5h-37.5v-6.25h37.5V87.5z"></path></svg>