<?xml version="1.0" encoding="utf-8"?><!DOCTYPE svg PUBLIC "-//W3C//DTD SVG 1.1//EN" "http://www.w3.org/Graphics/SVG/1.1/DTD/svg11.dtd"><svg version="1.1" xmlns="http://www.w3.org/2000/svg" xmlns:xlink="http://www.w3.org/1999/xlink" x="0px" y="0px" viewBox="0 0 62.5 100" enable-background="new 0 0 62.5 100" xml:space="preserve"><path fill="#010101" d="M60.781,14.219c-1.197-1.146-3.047-1.719-5.547-1.719H43.75V7.266c0-2.5-0.572-4.349-1.719-5.547
	C40.834,0.573,38.984,0,36.484,0H26.016c-2.5,0-4.349,0.573-5.547,1.719c-1.146,1.198-1.719,3.047-1.719,5.547V12.5H7.266
	c-2.5,0-4.349,0.573-5.547,1.719C0.573,15.417,0,17.266,0,19.766v72.969c0,2.5,0.573,4.35,1.719,5.547
	C2.917,99.428,4.766,100,7.266,100h47.969c2.5,0,4.35-0.572,5.547-1.719c1.146-1.197,1.719-3.047,1.719-5.547V19.766
	C62.5,17.266,61.928,15.417,60.781,14.219 M12.5,68.75H50V87.5H12.5V68.75"></path></svg>