<?xml version="1.0" encoding="UTF-8" standalone="no"?>
<svg
   xmlns:dc="http://purl.org/dc/elements/1.1/"
   xmlns:cc="http://creativecommons.org/ns#"
   xmlns:rdf="http://www.w3.org/1999/02/22-rdf-syntax-ns#"
   xmlns:svg="http://www.w3.org/2000/svg"
   xmlns="http://www.w3.org/2000/svg"
   xmlns:sodipodi="http://sodipodi.sourceforge.net/DTD/sodipodi-0.dtd"
   xmlns:inkscape="http://www.inkscape.org/namespaces/inkscape"
   version="1.1"
   x="0px"
   y="0px"
   viewBox="0 0 48 48"
   enable-background="new 0 0 100 100"
   xml:space="preserve"
   id="svg2"
   inkscape:version="0.91 r13725"
   sodipodi:docname="batteryLow.svg"
   width="48"
   height="48"><metadata
     id="metadata10"><rdf:RDF><cc:Work
         rdf:about=""><dc:format>image/svg+xml</dc:format><dc:type
           rdf:resource="http://purl.org/dc/dcmitype/StillImage" /><dc:title></dc:title></cc:Work></rdf:RDF></metadata><defs
     id="defs8" /><sodipodi:namedview
     pagecolor="#ffffff"
     bordercolor="#666666"
     borderopacity="1"
     objecttolerance="10"
     gridtolerance="10"
     guidetolerance="10"
     inkscape:pageopacity="0"
     inkscape:pageshadow="2"
     inkscape:window-width="1855"
     inkscape:window-height="1056"
     id="namedview6"
     showgrid="false"
     inkscape:zoom="4.72"
     inkscape:cx="63.14423"
     inkscape:cy="48.431149"
     inkscape:window-x="65"
     inkscape:window-y="24"
     inkscape:window-maximized="1"
     inkscape:current-layer="svg2" /><path
     d="M 38.174588,6.825052 C 37.600034,6.274977 36.712043,5.99994 35.512055,5.99994 l -5.512265,0 0,-2.512295 c 0,-1.199988 -0.274557,-2.087499 -0.825112,-2.662533 C 28.600124,0.275037 27.712133,0 26.512145,0 l -5.02459,0 C 20.287567,0 19.400056,0.275037 18.825022,0.825112 18.274947,1.400146 17.99991,2.287657 17.99991,3.487645 l 0,2.512295 -5.512265,0 c -1.199988,0 -2.087499,0.275037 -2.662533,0.825112 C 9.275037,7.400086 9,8.287597 9,9.487585 l 0,35.02477 c 0,1.199988 0.275037,2.087979 0.825112,2.662533 C 10.400146,47.724963 11.287657,48 12.487645,48 l 23.02489,0 c 1.199988,0 2.087979,-0.274557 2.662533,-0.825112 0.550075,-0.574554 0.825112,-1.462545 0.825112,-2.662533 l 0,-35.02477 C 38.9997,8.287597 38.725143,7.400086 38.174588,6.825052 Z m -5.174828,35.174528 -17.99982,0 0,-2.99997 17.99982,0 0,2.99997 z"
     id="path4"
     inkscape:connector-curvature="0"
     style="fill:#1c2b36;fill-opacity:1" /></svg>