<?xml version="1.0" encoding="UTF-8" standalone="no"?>
<svg
   xmlns:dc="http://purl.org/dc/elements/1.1/"
   xmlns:cc="http://creativecommons.org/ns#"
   xmlns:rdf="http://www.w3.org/1999/02/22-rdf-syntax-ns#"
   xmlns:svg="http://www.w3.org/2000/svg"
   xmlns="http://www.w3.org/2000/svg"
   xmlns:sodipodi="http://sodipodi.sourceforge.net/DTD/sodipodi-0.dtd"
   xmlns:inkscape="http://www.inkscape.org/namespaces/inkscape"
   version="1.1"
   x="0px"
   y="0px"
   viewBox="0 0 48 48"
   id="svg2"
   inkscape:version="0.91 r13725"
   sodipodi:docname="closingBox.svg"
   width="48"
   height="48">
  <metadata
     id="metadata22">
    <rdf:RDF>
      <cc:Work
         rdf:about="">
        <dc:format>image/svg+xml</dc:format>
        <dc:type
           rdf:resource="http://purl.org/dc/dcmitype/StillImage" />
        <dc:title></dc:title>
      </cc:Work>
    </rdf:RDF>
  </metadata>
  <defs
     id="defs20" />
  <sodipodi:namedview
     pagecolor="#ffffff"
     bordercolor="#666666"
     borderopacity="1"
     objecttolerance="10"
     gridtolerance="10"
     guidetolerance="10"
     inkscape:pageopacity="0"
     inkscape:pageshadow="2"
     inkscape:window-width="959"
     inkscape:window-height="744"
     id="namedview18"
     showgrid="false"
     inkscape:zoom="4.7066795"
     inkscape:cx="28.965426"
     inkscape:cy="24.784218"
     inkscape:window-x="1345"
     inkscape:window-y="56"
     inkscape:window-maximized="1"
     inkscape:current-layer="svg2"
     inkscape:snap-others="true" />
  <g
     transform="matrix(0.60383101,0,0,0.60383101,-5.8985085,-580.28142)"
     id="g4"
     style="fill:#ffffff;fill-opacity:1;stroke:#1c2b36;stroke-opacity:1">
    <g
       transform="translate(0.5750351,0)"
       id="g6"
       style="fill:#ffffff;fill-opacity:1;stroke:#1c2b36;stroke-opacity:1">
      <rect
         y="991.29108"
         x="12.099533"
         height="47.951061"
         width="74.650864"
         style="color:#000000;display:inline;overflow:visible;visibility:visible;fill:#ffffff;stroke:#1c2b36;stroke-width:2.5;stroke-linecap:round;stroke-linejoin:round;stroke-miterlimit:4;stroke-dasharray:none;stroke-dashoffset:0;stroke-opacity:1;marker:none;enable-background:accumulate;fill-opacity:1"
         stroke-miterlimit="4"
         visibility="visible"
         display="inline"
         overflow="visible"
         id="rect8" />
      <path
         d="m 12.187705,991.29102 36.434565,-4.41006 0,-20.54695 -23.930625,2.80641 z"
         style="fill:#ffffff;stroke:#1c2b36;stroke-width:2.5;stroke-linecap:round;stroke-linejoin:round;stroke-miterlimit:4;stroke-dasharray:none;stroke-opacity:1;fill-opacity:1"
         stroke-miterlimit="4"
         id="path10"
         inkscape:connector-curvature="0" />
      <path
         d="m 49.850664,991.09917 0,-22.11226 23.980797,0 12.884353,22.2923 z"
         style="fill:#ffffff;stroke:#1c2b36;stroke-width:2.5;stroke-linecap:round;stroke-linejoin:round;stroke-miterlimit:4;stroke-dasharray:none;stroke-opacity:1;fill-opacity:1"
         stroke-miterlimit="4"
         id="path12"
         inkscape:connector-curvature="0" />
    </g>
  </g>
  <path
     style="fill:#666666;fill-opacity:1"
     d="m 4.4138599,2.3001902 c 1.3799716,-0.210931 4.4500551,-0.231754 5.8458541,-0.03965 0.745021,0.102536 1.134135,0.226954 1.966472,0.628769 1.124479,0.542849 2.122336,1.270298 2.632223,1.91892 0.177198,0.225404 0.459213,0.736038 0.626727,1.134731 0.167499,0.3987 0.3596,0.739298 0.426878,0.756894 0.06728,0.0176 0.810273,-0.18952 1.651101,-0.46026 l 1.52879,-0.492192 -1.117332,2.208318 c -0.614534,1.214578 -1.46497,2.8464108 -1.889862,3.6262998 L 15.312183,13 13.399936,11.982337 C 12.348199,11.422624 10.770865,10.629692 9.894748,10.220269 9.018633,9.8108482 8.309371,9.4447752 8.318614,9.4067752 c 0.0092,-0.038 0.715379,-0.326533 1.56927,-0.641022 0.853856,-0.314562 1.541419,-0.606003 1.527918,-0.647654 C 11.356342,7.9346682 9.601809,5.8608282 8.912549,5.1592882 7.4838184,3.7050992 6.6961404,3.1827642 5.3463016,2.7943922 4.9071579,2.6680422 4.424589,2.5194062 4.273928,2.4640862 L 4,2.3635062 4.4138812,2.3002362 Z"
     id="path3430-3"
     inkscape:connector-curvature="0" />
  <path
     style="fill:#666666;fill-opacity:1"
     d="m 43.678045,2.3001887 c -1.379972,-0.210931 -4.450056,-0.231754 -5.845855,-0.03965 -0.74502,0.102536 -1.134134,0.226954 -1.966471,0.628769 -1.12448,0.542849 -2.122336,1.270298 -2.632223,1.91892 -0.177198,0.225404 -0.459213,0.736038 -0.626727,1.134731 -0.167499,0.3987 -0.3596,0.739298 -0.426878,0.756894 -0.06728,0.0176 -0.810273,-0.18952 -1.651101,-0.46026 L 29,5.7474007 30.117332,7.9557191 c 0.614534,1.214578 1.46497,2.8464109 1.889862,3.6262999 L 32.779722,13 34.691969,11.982336 c 1.051737,-0.559713 2.62907,-1.352645 3.505187,-1.762068 0.876116,-0.4094209 1.585377,-0.7754939 1.576135,-0.8134939 -0.0092,-0.038 -0.715379,-0.326533 -1.56927,-0.641022 -0.853857,-0.314562 -1.54142,-0.606003 -1.527919,-0.647654 0.05946,-0.183431 1.813993,-2.2572714 2.503253,-2.9588114 1.428731,-1.454189 2.216409,-1.976524 3.566248,-2.364896 0.439144,-0.12635 0.921713,-0.274986 1.072374,-0.330306 l 0.273928,-0.10058 -0.413882,-0.06327 z"
     id="path3430-3-6"
     inkscape:connector-curvature="0" />
</svg>
