<svg xmlns:dc="http://purl.org/dc/elements/1.1/" xmlns:cc="http://creativecommons.org/ns#" xmlns:rdf="http://www.w3.org/1999/02/22-rdf-syntax-ns#" xmlns:svg="http://www.w3.org/2000/svg" xmlns="http://www.w3.org/2000/svg" xmlns:sodipodi="http://sodipodi.sourceforge.net/DTD/sodipodi-0.dtd" xmlns:inkscape="http://www.inkscape.org/namespaces/inkscape" version="1.1" x="0px" y="0px" viewBox="0 0 100 125"><g transform="translate(0,-952.36218)"><path style="text-indent:0;text-transform:none;direction:ltr;block-progression:tb;baseline-shift:baseline;color:#000000;enable-background:accumulate;" d="m 58,974.36218 c 12.147001,0 20.876901,10.0998 21.125,20.875 7.421199,2.223 12.875,8.99212 12.875,17.12502 0,9.9293 -8.070701,18 -18,18 l -48,0 c -10.606,0 -18.0000005,-7.1236 -18.0000005,-16 0,-7.1804 4.8829005,-14.1542 12.0937995,-15.78132 0.2459,-5.8828 3.043899,-10.2763 6.906201,-12.5937 3.787498,-2.2725 8.4651,-2.5489 12.5938,-0.8125 3.3101,-5.9681 9.831,-10.8125 18.4062,-10.8125 z m 0,2 c -8.1575,0 -14.250901,4.7517 -17.093801,10.4375 a 1.0001,1.0001 0 0 1 -1.343699,0.4375 c -3.687,-1.8435 -8.1039,-1.6064 -11.5625,0.4687 -3.458601,2.0752 -6,5.9619 -6,11.6563 a 1.0001,1.0001 0 0 1 -0.843801,0.96872 c -6.5514,1.0993 -11.1561995,7.5352 -11.1561995,14.0313 0,7.7829 6.2685985,14 16.0000005,14 l 48,0 c 8.8485,0 16,-7.1516 16,-16 0,-7.4872 -5.133201,-13.74552 -12.0625,-15.50002 a 1.0001,1.0001 0 0 1 -0.75,-1 c 0.095,-9.9308 -7.925601,-19.5 -19.1875,-19.5 z" fill="#000000" fill-opacity="1" stroke="none" marker="none" visibility="visible" display="inline" overflow="visible"/></g><text x="0" y="115" fill="#000000" font-size="5px" font-weight="bold" font-family="'Helvetica Neue', Helvetica, Arial-Unicode, Arial, Sans-serif">Created by Aya Sofya</text><text x="0" y="120" fill="#000000" font-size="5px" font-weight="bold" font-family="'Helvetica Neue', Helvetica, Arial-Unicode, Arial, Sans-serif">from the Noun Project</text></svg>