<?xml version="1.0" encoding="UTF-8" standalone="no"?>
<!-- Created with Inkscape (http://www.inkscape.org/) -->

<svg
   xmlns:dc="http://purl.org/dc/elements/1.1/"
   xmlns:cc="http://creativecommons.org/ns#"
   xmlns:rdf="http://www.w3.org/1999/02/22-rdf-syntax-ns#"
   xmlns:svg="http://www.w3.org/2000/svg"
   xmlns="http://www.w3.org/2000/svg"
   xmlns:sodipodi="http://sodipodi.sourceforge.net/DTD/sodipodi-0.dtd"
   xmlns:inkscape="http://www.inkscape.org/namespaces/inkscape"
   width="48"
   height="48"
   viewBox="0 0 48.000001 48.000001"
   id="svg2"
   version="1.1"
   inkscape:version="0.91 r13725"
   sodipodi:docname="description.svg">
  <defs
     id="defs4" />
  <sodipodi:namedview
     id="base"
     pagecolor="#ffffff"
     bordercolor="#666666"
     borderopacity="1.0"
     inkscape:pageopacity="0.0"
     inkscape:pageshadow="2"
     inkscape:zoom="8"
     inkscape:cx="24.890237"
     inkscape:cy="11.595693"
     inkscape:document-units="px"
     inkscape:current-layer="g4185"
     showgrid="false"
     units="px"
     inkscape:window-width="1215"
     inkscape:window-height="776"
     inkscape:window-x="65"
     inkscape:window-y="24"
     inkscape:window-maximized="1" />
  <metadata
     id="metadata7">
    <rdf:RDF>
      <cc:Work
         rdf:about="">
        <dc:format>image/svg+xml</dc:format>
        <dc:type
           rdf:resource="http://purl.org/dc/dcmitype/StillImage" />
        <dc:title />
      </cc:Work>
    </rdf:RDF>
  </metadata>
  <g
     inkscape:label="Layer 1"
     inkscape:groupmode="layer"
     id="layer1"
     transform="translate(0,-1004.3622)">
    <g
       id="g4185"
       transform="translate(162.50071,374.99578)">
      <g
         id="g4165"
         display="none"
         style="display:none">
        <rect
           id="rect4167"
           height="1272.127"
           width="1566.157"
           display="inline"
           y="-733.24103"
           x="-1021.258"
           style="display:inline;fill:#000000" />
      </g>
      <g
         id="g4169"
         transform="matrix(0.71641791,0,0,0.71641791,-174.32161,617.54553)"
         style="fill:#b3b3b3;fill-opacity:0.7019608">
        <path
           id="path4171"
           d="m 63.598,36.402 c 1.345,1.343 2.988,2.023 4.885,2.023 1.898,0 3.541,-0.682 4.883,-2.023 1.343,-1.343 2.024,-2.986 2.024,-4.885 0,-1.899 -0.682,-3.541 -2.022,-4.882 -1.341,-1.344 -2.984,-2.025 -4.885,-2.025 -1.896,0 -3.54,0.681 -4.886,2.024 -1.341,1.343 -2.021,2.986 -2.021,4.883 0,1.896 0.68,3.538 2.021,4.883 0,0 10e-4,0.001 10e-4,0.002 z m 2.121,-7.645 c 0.771,-0.771 1.676,-1.146 2.764,-1.146 1.09,0 1.992,0.374 2.762,1.146 0.771,0.77 1.146,1.673 1.146,2.761 0,1.089 -0.375,1.992 -1.146,2.763 -0.77,0.771 -1.673,1.146 -2.761,1.146 -1.088,0 -1.992,-0.375 -2.764,-1.146 -0.77,-0.771 -1.144,-1.676 -1.144,-2.762 -10e-4,-1.089 0.373,-1.993 1.143,-2.762 z"
           inkscape:connector-curvature="0"
           style="fill:#b3b3b3;fill-opacity:0.7019608" />
        <path
           id="path4173"
           d="m 39.286,81.497 c 1.328,1.329 2.965,2.003 4.863,2.003 1.854,0 3.495,-0.664 4.877,-1.973 0.01,-0.01 0.02,-0.02 0.029,-0.029 L 79.22,51.293 c 1.204,-1.206 2.229,-2.819 3.047,-4.793 0.818,-1.973 1.233,-3.83 1.233,-5.519 l 0,-17.574 c 0,-1.869 -0.688,-3.506 -2.044,-4.862 C 80.1,17.189 78.464,16.5 76.593,16.5 l -17.573,0 c -1.684,0 -3.539,0.415 -5.515,1.233 -1.982,0.82 -3.587,1.851 -4.755,3.049 L 18.502,50.988 c -1.328,1.33 -2.002,2.966 -2.002,4.862 0,1.853 0.664,3.493 2.004,4.906 L 39.286,81.497 Z M 20.623,53.11 50.884,22.89 c 0.896,-0.919 2.164,-1.722 3.769,-2.386 1.61,-0.667 3.079,-1.005 4.367,-1.005 l 17.573,0 c 1.061,0 1.957,0.381 2.741,1.166 0.784,0.785 1.166,1.682 1.166,2.741 l 0,17.574 c 0,1.292 -0.338,2.762 -1.005,4.369 -0.667,1.61 -1.474,2.896 -2.398,3.823 l -30.149,30.19 c -0.813,0.766 -1.729,1.138 -2.799,1.138 -1.089,0 -1.985,-0.367 -2.742,-1.125 L 20.652,58.664 C 19.877,57.846 19.5,56.925 19.5,55.851 c 0,-1.087 0.368,-1.985 1.123,-2.741 z"
           inkscape:connector-curvature="0"
           style="fill:#b3b3b3;fill-opacity:0.7019608" />
      </g>
      <path
         style="fill:#b3b3b3;fill-opacity:0.7019608"
         d="M 18.446864,47.724209 C 18.200691,47.649327 17.758727,47.461216 17.46472,47.306186 17.170713,47.151155 13.26037,43.342098 8.775069,38.841612 0.70399163,30.743212 0.61684654,30.648027 0.31622783,29.602303 -0.04637387,28.340966 0.04646818,27.180095 0.59849479,26.072911 1.1391517,24.988532 22.918989,3.1624856 24.519448,2.1012058 25.9288,1.166651 27.607362,0.48468653 29.162305,0.21490984 c 0.768029,-0.13325015 3.516823,-0.18282844 8.125,-0.14654559 6.914757,0.05444389 6.970345,0.05784327 7.816141,0.47799619 0.46852,0.23273929 1.165609,0.77960746 1.549088,1.21526246 1.237337,1.4056893 1.259771,1.5738016 1.259771,9.4404411 0,3.848563 -0.0787,7.412393 -0.174898,7.919623 -0.236022,1.244536 -0.994607,3.110509 -1.750173,4.305083 -0.387897,0.613275 -4.854499,5.221816 -11.892709,12.270633 -12.391297,12.409972 -12.152165,12.205174 -14.217934,12.176559 -0.540179,-0.0075 -1.183556,-0.07487 -1.429727,-0.149753 z m 2.568005,-2.066618 c 0.31199,-0.14805 5.677738,-5.391354 11.923884,-11.651786 10.328954,-10.35258 11.406818,-11.487641 11.911231,-12.543321 1.053144,-2.204111 1.098035,-2.618359 1.098035,-10.132539 0,-7.5621739 -0.0018,-7.575978 -1.124296,-8.5615321 C 43.943678,1.9957242 43.459628,1.9570915 35.680162,2.0386542 29.534525,2.1030874 29.003818,2.1337383 28.082287,2.4774685 25.823935,3.3198319 25.811487,3.3310397 13.868503,15.274936 1.1162001,28.028212 1.7499536,27.282143 2.2058379,29.00448 c 0.1772191,0.669538 1.1115068,1.675897 7.7308097,8.327168 4.1410754,4.161075 7.8864794,7.797236 8.3231184,8.080357 0.90405,0.586193 1.858109,0.671238 2.755103,0.245586 z"
         id="path4139"
         inkscape:connector-curvature="0"
         transform="translate(-162.50071,629.36642)" />
      <path
         style="fill:#b3b3b3;fill-opacity:0.7019608"
         d="M 18.019448,47.596236 C 17.343353,47.356357 15.933141,46.032787 9.1299254,39.252879 3.032867,33.176707 0.93554267,30.977368 0.60313967,30.311352 0.0282972,29.159571 -0.0119363,27.291328 0.51473681,26.206362 0.75035881,25.720973 4.7601829,21.594743 12.612951,13.756932 25.243966,1.1499752 24.739525,1.5925057 27.668191,0.54946862 c 1.120539,-0.3990775 1.371071,-0.41316189 8.437627,-0.47434625 8.706807,-0.0753861567 8.745155,-0.0696729 10.311144,1.53616473 0.627791,0.6437649 1.066315,1.2793146 1.205357,1.7469146 0.291238,0.9794287 0.309133,15.0625263 0.02069,16.2841353 -0.108825,0.460902 -0.559401,1.601397 -1.001278,2.534433 l -0.803414,1.696428 -11.543365,11.56772 c -8.396964,8.414684 -11.762393,11.674448 -12.346934,11.959273 -1.029116,0.501454 -2.816396,0.590643 -3.928571,0.196045 z m 2.907521,-1.919127 c 0.67467,-0.29313 23.104949,-22.741386 23.659949,-23.678911 0.203494,-0.34375 0.576919,-1.241846 0.829832,-1.995771 l 0.459841,-1.37077 0,-7.308179 c 0,-7.2864149 -0.0012,-7.3099569 -0.402393,-7.905289 -0.221316,-0.3284105 -0.68337,-0.7621689 -1.026786,-0.9639077 -0.60175,-0.3534959 -0.883423,-0.3667975 -7.76725,-0.3667975 -7.755775,0 -7.945155,0.019265 -10.063318,1.023704 C 25.525119,3.6288874 24.518184,4.5821044 14.033145,15.023557 7.7647854,21.265861 2.5214818,26.590189 2.3813592,26.855402 c -0.327949,0.620712 -0.3271782,1.988551 0.00146,2.607021 0.3658737,0.688525 15.8138565,16.057539 16.3509065,16.267323 0.650363,0.254047 1.536309,0.232784 2.193236,-0.05264 l 3e-6,0 z"
         id="path4141"
         inkscape:connector-curvature="0"
         transform="translate(-162.50071,629.36642)" />
      <path
         style="fill:#b3b3b3;fill-opacity:0.7019608"
         d="M 18.019448,47.596236 C 17.343353,47.356357 15.933141,46.032787 9.1299254,39.252879 3.032867,33.176707 0.93554267,30.977368 0.60313967,30.311352 0.0282972,29.159571 -0.0119363,27.291328 0.51473681,26.206362 0.75035881,25.720973 4.7601829,21.594743 12.612951,13.756932 25.243966,1.1499752 24.739525,1.5925057 27.668191,0.54946862 c 1.120539,-0.3990775 1.371071,-0.41316189 8.437627,-0.47434625 8.706807,-0.0753861567 8.745155,-0.0696729 10.311144,1.53616473 0.627791,0.6437649 1.066315,1.2793146 1.205357,1.7469146 0.291238,0.9794287 0.309133,15.0625263 0.02069,16.2841353 -0.108825,0.460902 -0.559401,1.601397 -1.001278,2.534433 l -0.803414,1.696428 -11.543365,11.56772 c -8.396964,8.414684 -11.762393,11.674448 -12.346934,11.959273 -1.029116,0.501454 -2.816396,0.590643 -3.928571,0.196045 z m 2.907521,-1.919127 c 0.67467,-0.29313 23.104949,-22.741386 23.659949,-23.678911 0.203494,-0.34375 0.576919,-1.241846 0.829832,-1.995771 l 0.459841,-1.37077 0,-7.308179 c 0,-7.2864149 -0.0012,-7.3099569 -0.402393,-7.905289 -0.221316,-0.3284105 -0.68337,-0.7621689 -1.026786,-0.9639077 -0.60175,-0.3534959 -0.883423,-0.3667975 -7.76725,-0.3667975 -7.755775,0 -7.945155,0.019265 -10.063318,1.023704 C 25.525119,3.6288874 24.518184,4.5821044 14.033145,15.023557 7.7647854,21.265861 2.5214818,26.590189 2.3813592,26.855402 c -0.327949,0.620712 -0.3271782,1.988551 0.00146,2.607021 0.3658737,0.688525 15.8138565,16.057539 16.3509065,16.267323 0.650363,0.254047 1.536309,0.232784 2.193236,-0.05264 l 3e-6,0 z"
         id="path4143"
         inkscape:connector-curvature="0"
         transform="translate(-162.50071,629.36642)" />
      <path
         style="fill:#b3b3b3;fill-opacity:0.7019608"
         d="M 18.019448,47.596236 C 17.343353,47.356357 15.933141,46.032787 9.1299254,39.252879 3.032867,33.176707 0.93554267,30.977368 0.60313967,30.311352 0.0282972,29.159571 -0.0119363,27.291328 0.51473681,26.206362 0.75035881,25.720973 4.7601829,21.594743 12.612951,13.756932 25.243966,1.1499752 24.739525,1.5925057 27.668191,0.54946862 c 1.120539,-0.3990775 1.371071,-0.41316189 8.437627,-0.47434625 8.706807,-0.0753861567 8.745155,-0.0696729 10.311144,1.53616473 0.627791,0.6437649 1.066315,1.2793146 1.205357,1.7469146 0.291238,0.9794287 0.309133,15.0625263 0.02069,16.2841353 -0.108825,0.460902 -0.559401,1.601397 -1.001278,2.534433 l -0.803414,1.696428 -11.543365,11.56772 c -8.396964,8.414684 -11.762393,11.674448 -12.346934,11.959273 -1.029116,0.501454 -2.816396,0.590643 -3.928571,0.196045 z m 2.907521,-1.919127 c 0.67467,-0.29313 23.104949,-22.741386 23.659949,-23.678911 0.203494,-0.34375 0.576919,-1.241846 0.829832,-1.995771 l 0.459841,-1.37077 0,-7.308179 c 0,-7.2864149 -0.0012,-7.3099569 -0.402393,-7.905289 -0.221316,-0.3284105 -0.68337,-0.7621689 -1.026786,-0.9639077 -0.60175,-0.3534959 -0.883423,-0.3667975 -7.76725,-0.3667975 -7.755775,0 -7.945155,0.019265 -10.063318,1.023704 C 25.525119,3.6288874 24.518184,4.5821044 14.033145,15.023557 7.7647854,21.265861 2.5214818,26.590189 2.3813592,26.855402 c -0.327949,0.620712 -0.3271782,1.988551 0.00146,2.607021 0.3658737,0.688525 15.8138565,16.057539 16.3509065,16.267323 0.650363,0.254047 1.536309,0.232784 2.193236,-0.05264 l 3e-6,0 z"
         id="path4145"
         inkscape:connector-curvature="0"
         transform="translate(-162.50071,629.36642)" />
      <path
         style="fill:#b3b3b3;fill-opacity:0.7019608"
         d="m 47.921589,11.283912 c 0,-3.584821 0.02383,-5.0513389 0.05296,-3.2589282 0.02913,1.7924107 0.02913,4.7254462 0,6.5178572 -0.02913,1.792411 -0.05296,0.325893 -0.05296,-3.258929 z"
         id="path4147"
         inkscape:connector-curvature="0"
         transform="translate(-162.50071,629.36642)" />
      <path
         style="fill:#b3b3b3;fill-opacity:0.7019608"
         d="m 35.251591,15.15893 c -1.008075,-0.481106 -2.132238,-1.631316 -2.541216,-2.600095 -0.353431,-0.837203 -0.353431,-2.784071 0,-3.6212733 0.150903,-0.3574572 0.583517,-0.9928347 0.961364,-1.4119499 2.292878,-2.543305 6.32087,-1.9643745 7.966539,1.1450054 0.555881,1.0503006 0.551874,3.1122018 -0.0081,4.1710528 -0.909591,1.719918 -2.283149,2.590144 -4.235723,2.683569 -1.029538,0.04926 -1.407473,-0.01534 -2.142857,-0.366309 z m 3.303208,-1.821258 C 39.931601,12.6257 40.486556,10.879955 39.772006,9.5086522 39.23363,8.4754463 38.608377,8.0394726 37.514196,7.9343356 c -1.750927,-0.168242 -3.066177,1.0491861 -3.066177,2.8381304 0,1.677218 1.139679,2.819903 2.821368,2.828809 0.422288,0.0022 1.000724,-0.116385 1.285412,-0.263603 z"
         id="path4149"
         inkscape:connector-curvature="0"
         transform="translate(-162.50071,629.36642)" />
      <path
         style="fill:#b3b3b3;fill-opacity:0.7019608"
         d="M 18.019448,47.596236 C 17.343353,47.356357 15.933141,46.032787 9.1299254,39.252879 3.032867,33.176707 0.93554267,30.977368 0.60313967,30.311352 0.0282972,29.159571 -0.0119363,27.291328 0.51473681,26.206362 0.75035881,25.720973 4.7601829,21.594743 12.612951,13.756932 25.243966,1.1499752 24.739525,1.5925057 27.668191,0.54946862 c 1.120539,-0.3990775 1.371071,-0.41316189 8.437627,-0.47434625 8.706807,-0.0753861567 8.745155,-0.0696729 10.311144,1.53616473 0.627791,0.6437649 1.066315,1.2793146 1.205357,1.7469146 0.291238,0.9794287 0.309133,15.0625263 0.02069,16.2841353 -0.108825,0.460902 -0.559401,1.601397 -1.001278,2.534433 l -0.803414,1.696428 -11.543365,11.56772 c -8.396964,8.414684 -11.762393,11.674448 -12.346934,11.959273 -1.029116,0.501454 -2.816396,0.590643 -3.928571,0.196045 z m 2.907521,-1.919127 c 0.67467,-0.29313 23.104949,-22.741386 23.659949,-23.678911 0.203494,-0.34375 0.576919,-1.241846 0.829832,-1.995771 l 0.459841,-1.37077 0,-7.308179 c 0,-7.2864149 -0.0012,-7.3099569 -0.402393,-7.905289 -0.221316,-0.3284105 -0.68337,-0.7621689 -1.026786,-0.9639077 -0.60175,-0.3534959 -0.883423,-0.3667975 -7.76725,-0.3667975 -7.755775,0 -7.945155,0.019265 -10.063318,1.023704 C 25.525119,3.6288874 24.518184,4.5821044 14.033145,15.023557 7.7647854,21.265861 2.5214818,26.590189 2.3813592,26.855402 c -0.327949,0.620712 -0.3271782,1.988551 0.00146,2.607021 0.3658737,0.688525 15.8138565,16.057539 16.3509065,16.267323 0.650363,0.254047 1.536309,0.232784 2.193236,-0.05264 l 3e-6,0 z"
         id="path4151"
         inkscape:connector-curvature="0"
         transform="translate(-162.50071,629.36642)" />
      <path
         style="fill:#b3b3b3;fill-opacity:0.7019608"
         d="m 36.54271,15.608188 c -1.448909,-0.166951 -2.908433,-1.198997 -3.638246,-2.572646 -0.982047,-1.848401 -0.639231,-4.1844922 0.833383,-5.6790155 0.97429,-0.9887853 2.130011,-1.4765459 3.498593,-1.4765459 3.449223,0 5.790774,3.3999214 4.576574,6.6451634 -0.21888,0.58501 -0.552478,1.092766 -1.074167,1.634951 -1.081319,1.1238 -2.565479,1.635986 -4.196137,1.448093 z m 1.952084,-2.321674 c 1.770862,-0.884911 2.116819,-3.212601 0.681834,-4.5875581 -0.595876,-0.5709499 -1.223403,-0.7943118 -2.090567,-0.7441165 -0.488313,0.028266 -0.792063,0.1012854 -1.121737,0.2696584 -1.632603,0.8338135 -2.068867,3.0187452 -0.869178,4.3530872 0.687842,0.765046 1.127141,0.961398 2.177547,0.973293 0.585564,0.0066 0.751719,-0.02931 1.222101,-0.264364 z"
         id="path4165"
         inkscape:connector-curvature="0"
         transform="translate(-162.50071,629.36642)" />
      <path
         style="fill:#b3b3b3;fill-opacity:0.7019608"
         d="M 10.738683,40.824544 C 7.3925675,37.511427 3.1010041,33.166313 1.9857488,31.962389 0.79581649,30.677851 0.52326528,30.270463 0.32922874,29.486353 0.06920651,28.435592 0.13307371,27.118618 0.48193898,26.337389 0.73188907,25.777665 2.8445806,23.581053 11.017498,15.383336 20.551304,5.8206002 23.367138,3.0866538 24.808443,1.9934487 c 0.84491,-0.6408506 1.390287,-0.916104 2.720752,-1.37317095 0.85719,-0.2944787 1.22647,-0.36246546 2.282946,-0.4203044 1.176766,-0.0644245 9.277631,-0.15024415 11.227678,-0.11894476 3.370536,0.05409901 3.963889,0.19425697 5.007576,1.18285861 0.718938,0.6809938 1.339572,1.4967184 1.511987,1.9872672 0.05296,0.150678 0.09815,0.4802446 0.129522,0.9445448 0.179853,2.6619207 0.181424,12.5227008 0.0024,14.8285018 -0.03846,0.495199 -0.07335,0.668753 -0.219946,1.09375 -0.237531,0.688658 -0.611268,1.562703 -1.183076,2.766835 l -0.480433,1.011683 -10.191285,10.182513 -10.191285,10.182514 -1.452079,0 -1.452079,0 1.345876,-1.305803 c 1.990364,-1.931102 11.763705,-11.682535 14.957582,-14.924053 4.628765,-4.697811 5.65306,-5.783882 5.881283,-6.235988 0.216532,-0.428947 0.511161,-1.177924 0.869295,-2.209818 l 0.337228,-0.971659 -0.02226,-6.875 C 45.867641,4.807423 45.856257,4.3305462 45.70136,3.8339317 45.556842,3.3705984 44.901627,2.6735555 44.34131,2.3870591 44.001712,2.2134182 43.70736,2.1660265 42.669284,2.1178564 c -1.192274,-0.055325 -10.1908,-0.05403 -11.629465,0.00167 -2.170993,0.084059 -2.842712,0.225458 -4.21875,0.8880588 -0.954235,0.4594911 -1.44756,0.8575915 -3.526785,2.8460234 C 19.847841,9.14956 5.6490724,23.347671 3.125232,26.02173 c -0.8702134,0.922008 -0.890377,0.957183 -0.9807921,1.710941 -0.036888,0.307521 -0.0363,0.526127 0.0023,0.855106 0.080914,0.68965 0.1559252,0.840089 0.737751,1.479607 1.4338569,1.576035 8.8322863,8.990475 13.2172683,13.245872 l 0.977117,0.94824 -1.434502,0 -1.434503,0 -3.471186,-3.436952 z"
         id="path4169"
         inkscape:connector-curvature="0"
         transform="translate(-162.50071,629.36642)" />
      <path
         style="fill:#b3b3b3;fill-opacity:0.7019608"
         d="M 3.6179546,33.850075 C 2.3023863,32.540176 1.129154,31.334129 1.0069122,31.166003 0.08871306,29.903153 -0.19675325,28.3973 0.1922777,26.868753 0.32025473,26.365917 0.70909354,25.603589 1.0594514,25.168637 1.4068931,24.737306 23.438384,2.7551791 23.829998,2.4491112 c 0.632734,-0.4945173 2.032738,-1.3260076 2.107224,-1.2515223 0.01208,0.01208 -0.06536,0.066425 -0.172094,0.1207657 C 24.98984,1.713079 23.822277,2.6971874 21.530891,4.8872822 20.094101,6.2605587 5.7697242,20.582426 3.9169843,22.498103 c -1.6775266,1.734512 -2.8476655,2.97994 -3.17074777,3.374759 -0.41908102,0.512134 -0.59927442,1.181762 -0.59927442,2.227004 0,1.02952 0.19971756,1.857822 0.58660817,2.432879 0.40458032,0.601351 1.55158962,1.840947 3.87364762,4.18633 0.7961268,0.804124 1.4367674,1.472779 1.4236465,1.4859 -0.013121,0.01312 -1.0989304,-1.046584 -2.4129098,-2.3549 z"
         id="path4172"
         inkscape:connector-curvature="0"
         transform="translate(-162.50071,629.36642)" />
      <path
         style="fill:#ff0000;fill-opacity:1"
         d=""
         id="path4174"
         inkscape:connector-curvature="0"
         transform="translate(-162.50071,629.36642)" />
      <path
         style="fill:#ff0000;fill-opacity:1"
         d=""
         id="path4176"
         inkscape:connector-curvature="0"
         transform="translate(-162.50071,629.36642)" />
      <path
         style="fill:#b3b3b3;fill-opacity:0.7019608"
         d="M 4.1302673,25.019573 C 4.1941206,24.840931 22.719586,6.3413645 22.777065,6.3988438 c 0.0051,0.00513 -4.190391,4.2027392 -9.32338,9.3280222 -5.1329887,5.125282 -9.3285266,9.307001 -9.3234177,9.292707 z"
         id="path4178"
         inkscape:connector-curvature="0"
         transform="translate(-162.50071,629.36642)" />
      <path
         style="fill:#b3b3b3;fill-opacity:0.7019608"
         d="m 12.659802,16.404569 c 0,-0.0052 0.223386,-0.231023 0.661926,-0.669077 1.228311,-1.226947 2.649572,-2.639438 2.655826,-2.639438 0.0034,0 -0.672873,0.67774 -1.502866,1.506089 -1.932831,1.929001 -1.814886,1.811866 -1.814886,1.802426 z"
         id="path4180"
         inkscape:connector-curvature="0"
         transform="translate(-162.50071,629.36642)" />
      <path
         style="fill:#b3b3b3;fill-opacity:0.7019608"
         d="m 12.68402,13.489348 c 0,-0.01277 0.08576,-0.0991 1.595547,-1.606159 l 1.595546,-1.592659 0.01538,0.0012 0.01538,0.0012 -1.210693,1.207031 c -0.665881,0.663867 -1.3908,1.386095 -1.610931,1.60495 -0.382289,0.380076 -0.400237,0.397314 -0.400237,0.384419 z"
         id="path4182"
         inkscape:connector-curvature="0"
         transform="translate(-162.50071,629.36642)" />
      <path
         style="fill:#b3b3b3;fill-opacity:0.7019608"
         d="m 12.68402,14.047823 0,-0.360358 1.701932,-1.698235 1.701932,-1.698236 0.706271,0 0.706271,0 0,0.64019 0,0.640189 -0.686523,0.682889 c -0.377588,0.375589 -1.018969,1.013871 -1.425291,1.418405 l -0.738768,0.735515 -0.982912,0 -0.982912,0 0,-0.360359 z"
         id="path4184"
         inkscape:connector-curvature="0"
         transform="translate(-162.50071,629.36642)" />
      <path
         style="fill:#b3b3b3;fill-opacity:0.7019608"
         d="m 12.68402,14.047573 0,-0.360608 1.70159,-1.697985 1.701589,-1.697986 0.706614,0 0.706613,0 0,0.6397 0,0.6397 -0.346679,0.345894 c -0.190674,0.190241 -0.674422,0.671859 -1.074996,1.070261 -0.400574,0.398402 -0.885913,0.881252 -1.078532,1.073 l -0.350215,0.348633 -0.982992,0 -0.982992,0 0,-0.360609 z"
         id="path4186"
         inkscape:connector-curvature="0"
         transform="translate(-162.50071,629.36642)" />
      <path
         style="fill:#b3b3b3;fill-opacity:0.7019608"
         d="m 14.535583,11.660089 c 0,-0.0021 0.05625,-0.06013 0.125,-0.12886 0.06875,-0.06873 0.125,-0.123197 0.125,-0.121048 0,0.0021 -0.05625,0.06014 -0.125,0.12886 -0.06875,0.06873 -0.125,0.123197 -0.125,0.121048 z"
         id="path4188"
         inkscape:connector-curvature="0"
         transform="translate(-162.50071,629.36642)" />
      <path
         style="fill:#b3b3b3;fill-opacity:0.7019608"
         d="M 18.365269,47.643154 C 18.170814,47.595932 17.574193,47.228157 17.039443,46.825875 16.090741,46.112183 1.0213948,31.196899 0.97955654,30.930176 0.96795704,30.856229 0.82210163,30.587606 0.65543338,30.333239 0.44582322,30.013333 0.33267677,29.400794 0.28842389,28.346369 0.23191103,26.99982 0.2711055,26.749807 0.6243959,26.203268 0.84436749,25.862973 1.0281261,25.541112 1.0327484,25.488021 1.0496606,25.293768 23.632325,2.7816366 23.770624,2.8211619 c 0.07853,0.022443 0.288947,-0.1366558 0.467596,-0.3535534 0.593858,-0.7210049 2.282887,-1.57224102 3.992148,-2.01196262 0.816703,-0.21010336 2.495247,-0.27043977 8.220116,-0.29547763 8.35157,-0.0365258 8.418503,-0.0274135 9.776945,1.33102865 1.537084,1.5370854 1.462184,1.1044001 1.539103,8.8910391 0.08101,8.201068 -0.0011,9.115477 -1.032588,11.507813 l -0.754565,1.749957 -8.857308,8.899978 c -4.871518,4.894988 -10.261105,10.233183 -11.976859,11.862655 -2.669975,2.535708 -3.235367,2.99184 -3.923174,3.165031 -0.801318,0.201775 -2.186054,0.238363 -2.856769,0.07548 z m 2.459457,-1.910594 c 0.312589,-0.148333 5.78152,-5.498038 12.15318,-11.888232 l 11.584834,-11.618535 0.601458,-1.414214 0.601458,-1.414214 0.04947,-7.700012 0.04947,-7.7000116 -0.403622,-0.598935 C 44.627529,2.1616632 44.484313,2.132655 38.733384,2.0357432 35.892459,1.9878693 32.390641,2.0294853 30.95157,2.1282232 27.041297,2.3965155 26.790018,2.5383208 21.881428,7.2468202 17.01241,11.917359 2.8846666,26.127809 2.4640275,26.777893 2.0239338,27.458045 2.0481628,28.849718 2.5131,29.596545 c 0.516582,0.829782 15.766227,15.996417 16.296778,16.208066 0.647906,0.258465 1.372979,0.232536 2.014848,-0.07205 z"
         id="path4192"
         inkscape:connector-curvature="0"
         transform="translate(-162.50071,629.36642)" />
      <path
         style="fill:#b3b3b3;fill-opacity:0.7019608;stroke:#b3b3b3;stroke-opacity:0.7019608"
         d="M 18.365269,47.643375 C 17.549081,47.445677 15.67355,45.71752 8.5373577,38.587708 2.8069299,32.862404 0.91221998,30.86289 0.60864591,30.220425 0.27139391,29.506686 0.21935244,29.147553 0.27189684,27.896566 c 0.0481748,-1.146953 0.13786873,-1.563294 0.39890635,-1.85164 0.18521657,-0.204594 0.27665088,-0.371988 0.20318737,-0.371988 -0.0734635,0 5.05291704,-5.190606 11.39195644,-11.534679 6.33904,-6.3440738 11.603724,-11.5346795 11.699296,-11.5346795 0.09557,0 0.275563,-0.1392117 0.399977,-0.3093592 0.124415,-0.1701476 0.278807,-0.3093592 0.343093,-0.3093592 0.06429,0 0.41349,-0.1942974 0.776008,-0.4317719 0.362517,-0.2374745 1.286593,-0.64086967 2.053503,-0.89643377 l 1.394381,-0.464662 7.444454,-0.0316438 c 5.634435,-0.0239501 7.626588,0.0235952 8.193559,0.19554958 0.474044,0.14377114 1.07432,0.55240732 1.634799,1.11288593 1.572468,1.5724682 1.489798,1.0913066 1.561744,9.0897459 0.03705,4.118657 -0.01,7.600176 -0.112578,8.33829 -0.108042,0.777126 -0.465964,1.939383 -0.925463,3.005203 l -0.749282,1.737982 -9.034113,9.076923 c -4.968764,4.992307 -10.359364,10.330752 -11.97911,11.863214 -2.500279,2.365539 -3.066015,2.816765 -3.746397,2.988088 -0.799022,0.201195 -2.183666,0.237644 -2.854549,0.07514 z m 2.055029,-1.751995 c 0.495561,-0.0921 2.403611,-1.911168 11.264479,-10.739184 5.867323,-5.845569 11.20508,-11.23176 11.861681,-11.969315 0.947866,-1.064729 1.308553,-1.641458 1.750705,-2.799337 l 0.556882,-1.458328 0,-7.432845 c 0,-7.1852173 -0.01207,-7.4523856 -0.362465,-8.0193258 C 45.292225,3.1504815 44.834816,2.7035697 44.475114,2.4799078 l -0.654001,-0.4066584 -7.071068,0.00869 C 31.4708,2.0884275 29.432602,2.1505952 28.706705,2.327271 26.878806,2.7721629 25.819,3.4645575 23.354915,5.8237132 19.439198,9.572685 6.7201491,22.255033 4.3858253,24.738069 l -2.1956242,2.335497 0,1.05158 c 0,0.957127 0.061711,1.128422 0.6870728,1.907141 1.1106277,1.382988 15.4536241,15.581193 15.9335001,15.772656 0.535427,0.213626 0.837766,0.229863 1.609524,0.08644 z"
         id="path4194"
         inkscape:connector-curvature="0"
         transform="translate(-162.50071,629.36642)" />
      <path
         style="fill:#b3b3b3;fill-opacity:0.7019608;stroke:#b3b3b3;stroke-width:0.17677669;stroke-opacity:0.70196078"
         d="M 17.505312,47.236813 C 17.042878,46.943546 13.091382,43.154424 8.7242096,38.816542 1.4028714,31.544307 0.75465842,30.852068 0.40882858,29.936394 0.12454088,29.18367 0.05371966,28.68533 0.11622272,27.877448 c 0.0815022,-1.053457 0.67963119,-2.558063 1.01691098,-2.558063 0.095251,0 0.1731839,-0.107233 0.1731839,-0.238295 0,-0.131062 5.1110562,-5.323234 11.3579024,-11.53816 C 27.438108,-1.1554649 25.128169,0.14472212 36.48488,0.1350827 c 5.924644,-0.005029 7.658044,0.0448503 8.199028,0.23592906 0.810341,0.28621732 1.801012,1.14138694 2.513983,2.17012804 l 0.512309,0.7392077 0,8.2352855 0,8.235286 -0.844232,1.960238 -0.844233,1.960238 -11.728458,11.694264 c -8.758471,8.732935 -11.924446,11.78319 -12.502408,12.045433 -0.549518,0.249335 -1.161197,0.352293 -2.10936,0.355051 -1.185297,0.0034 -1.429922,-0.05606 -2.176197,-0.52933 z m 4.381598,-0.536694 c 1.433607,-0.909166 23.455557,-22.875243 24.013093,-23.952167 0.171116,-0.330528 0.552844,-1.322454 0.848284,-2.204282 L 47.28545,18.940348 47.23266,11.213906 C 47.173688,2.5827745 47.231245,2.9849125 45.881129,1.7651953 44.60042,0.60815174 45.039543,0.66413492 36.76357,0.60280689 L 29.175696,0.54657792 27.836347,1.0178386 C 25.126404,1.9713528 25.308656,1.8100996 12.796803,14.324513 6.3311952,20.791442 0.99853676,26.075632 0.94645076,26.067155 0.835354,26.049077 0.82403155,26.184454 0.77804354,28.080723 c -0.0258292,1.065041 0.0439655,1.589693 0.27044146,2.032932 0.3442204,0.673679 14.410689,14.814568 16.132718,16.218072 l 1.114032,0.907968 1.370428,0 c 1.22423,0 1.46119,-0.05756 2.221247,-0.539576 z"
         id="path4196"
         inkscape:connector-curvature="0"
         transform="translate(-162.50071,629.36642)" />
      <path
         style="fill:#b3b3b3;fill-opacity:0.7019608;stroke:#b3b3b3;stroke-width:0.17677669;stroke-opacity:0.70196078"
         d="M 17.022225,45.935369 C 14.866666,44.078051 1.3402003,30.381267 1.1390496,29.852201 1.0365926,29.582717 0.95276421,28.74295 0.95276421,27.986051 c 0,-1.771432 -0.0225412,-1.741065 4.79325839,-6.457335 2.0792262,-2.036253 7.1612654,-7.051121 11.2934204,-11.144151 4.132156,-4.0930296 7.950532,-7.7269055 8.485282,-8.0752794 0.534749,-0.3483739 1.553747,-0.8423093 2.264439,-1.0976342 l 1.292165,-0.4642272 6.486009,0.009532 c 3.567304,0.005242 7.095253,0.073514 7.839886,0.15171471 1.210835,0.12716099 1.442508,0.21481009 2.192761,0.82958499 1.405875,1.152009 1.371631,0.9266513 1.456023,9.5821791 l 0.07465,7.656195 -0.665711,1.868498 -0.665711,1.868496 -3.315415,3.468396 c -7.217614,7.550647 -20.090549,20.118536 -21.095127,20.595239 -0.374761,0.177836 -1.06547,0.285659 -1.82992,0.285659 l -1.227938,0 -1.308608,-1.127549 z m 4.250402,0.05342 c 1.783461,-1.291932 22.627738,-22.154006 23.628706,-23.648879 0.30244,-0.451671 0.75985,-1.351861 1.016466,-2.000421 l 0.466576,-1.179197 0,-7.395639 c 0,-4.2810242 -0.07267,-7.6490236 -0.172555,-7.9973018 C 46.006196,3.0503821 45.487256,2.4567786 44.535405,1.8497418 l -0.69992,-0.4463705 -7.343419,0.098501 C 28.164803,1.6135707 27.835468,1.6615359 25.674997,3.0772991 24.921209,3.5712583 20.792338,7.5654724 13.106162,15.236223 l -11.446291,11.423318 0.00109,1.230271 c 6.47e-4,0.731014 0.1055014,1.430445 0.2583819,1.723541 0.1415111,0.271297 1.2348267,1.530792 2.4295905,2.79888 2.9827733,3.165827 13.8758076,13.755965 14.3434956,13.944655 0.830222,0.334953 1.80081,0.196486 2.580199,-0.368102 z"
         id="path4198"
         inkscape:connector-curvature="0"
         transform="translate(-162.50071,629.36642)" />
      <path
         style="fill:#b3b3b3;fill-opacity:0.7019608;stroke:#b3b3b3;stroke-width:0.17677669;stroke-opacity:0.70196078"
         d="m 46.786076,6.4042784 c 0,-0.4375223 0.03447,-0.6165087 0.07661,-0.3977475 0.04214,0.2187611 0.04214,0.5767339 0,0.7954951 -0.04214,0.2187612 -0.07661,0.039775 -0.07661,-0.3977476 z"
         id="path4200"
         inkscape:connector-curvature="0"
         transform="translate(-162.50071,629.36642)" />
      <path
         style="fill:#b3b3b3;fill-opacity:0.7019608;stroke:#b3b3b3;stroke-width:0.17677669;stroke-opacity:0.70196078"
         d="m 46.912759,7.7742978 c -0.0011,-0.3159883 -0.05326,-0.8852029 -0.115978,-1.2649212 -0.07936,-0.4804732 -0.05504,-0.6539393 0.07997,-0.570495 0.126037,0.077895 0.217781,-0.1447216 0.261871,-0.6354282 0.03733,-0.4154317 0.08176,0.099827 0.09875,1.1450192 0.01901,1.1696379 -0.03709,1.9003495 -0.145892,1.9003495 -0.09723,0 -0.177653,-0.2585359 -0.178723,-0.5745243 z"
         id="path4202"
         inkscape:connector-curvature="0"
         transform="translate(-162.50071,629.36642)" />
    </g>
  </g>
</svg>
