<?xml version="1.0" encoding="UTF-8" standalone="no"?>
<svg
   xmlns:dc="http://purl.org/dc/elements/1.1/"
   xmlns:cc="http://creativecommons.org/ns#"
   xmlns:rdf="http://www.w3.org/1999/02/22-rdf-syntax-ns#"
   xmlns:svg="http://www.w3.org/2000/svg"
   xmlns="http://www.w3.org/2000/svg"
   xmlns:sodipodi="http://sodipodi.sourceforge.net/DTD/sodipodi-0.dtd"
   xmlns:inkscape="http://www.inkscape.org/namespaces/inkscape"
   version="1.1"
   x="0px"
   y="0px"
   viewBox="0 0 48 48"
   enable-background="new 0 0 512 512"
   xml:space="preserve"
   id="svg2"
   inkscape:version="0.91 r13725"
   sodipodi:docname="droneFlying.svg"
   width="48"
   height="48"><metadata
     id="metadata24"><rdf:RDF><cc:Work
         rdf:about=""><dc:format>image/svg+xml</dc:format><dc:type
           rdf:resource="http://purl.org/dc/dcmitype/StillImage" /><dc:title></dc:title></cc:Work></rdf:RDF></metadata><defs
     id="defs22" /><sodipodi:namedview
     pagecolor="#ffffff"
     bordercolor="#666666"
     borderopacity="1"
     objecttolerance="10"
     gridtolerance="10"
     guidetolerance="10"
     inkscape:pageopacity="0"
     inkscape:pageshadow="2"
     inkscape:window-width="959"
     inkscape:window-height="744"
     id="namedview20"
     showgrid="false"
     inkscape:zoom="4.17193"
     inkscape:cx="44.942319"
     inkscape:cy="20.809469"
     inkscape:window-x="1345"
     inkscape:window-y="56"
     inkscape:window-maximized="1"
     inkscape:current-layer="svg2" /><g
     id="g4"
     transform="matrix(0,0.09448819,-0.09448819,0,48.491875,-0.18829866)"
     style="fill:#1c2b36;fill-opacity:1"><path
       d="M 370,297.9 C 406.6,111.3 256.1,2.0000043 256.1,2.0000043 256.1,2.0000043 103.9,113.6 142.1,297.9 38.299994,383.9 92.099994,510 92.099994,510 c 0,0 13.400006,-90.3 83.000006,-126.3 9.7,18.4 30.3,42.7 30.3,42.7 l 101.3,0 c 0,0 20.1,-23 30.3,-42.7 67.1,41.1 75.8,99.6 83,126.3 0,0 53.5,-122.8 -50,-212.1 z M 256.1,24.900004 c 0,0 41.8,43.1 49.5,53.3 l -99,0 c 7.7,-10.2 49.5,-53.3 49.5,-53.3 z M 94.699994,448.4 c -0.4,-4.7 -9.6,-75.9 51.600006,-132.7 5.1,18.4 12.1,36.4 21,53.8 -31.8,18.4 -57.2,46 -72.600006,78.9 z M 299.1,410.2 213,410.2 C 138,317.8 133.1,191 195.3,94.400004 l 121.4,0 C 379,191 374.2,317.8 299.1,410.2 Z m 118.3,38.2 c -15.4,-32.9 -40.8,-60.6 -72.6,-78.9 8.9,-17.4 15.9,-35.4 21,-53.8 62,58.7 52,128.1 51.6,132.7 z"
       id="path6"
       inkscape:connector-curvature="0"
       style="fill:#1c2b36;fill-opacity:1" /><path
       d="m 256.1,126.8 c -31.3,0 -56.7,25.4 -56.7,56.7 0,31.3 25.4,56.7 56.7,56.7 31.3,0 56.7,-25.4 56.7,-56.7 0,-31.3 -25.5,-56.7 -56.7,-56.7 z m 0,97.2 c -22.3,0 -40.5,-18.2 -40.5,-40.5 0,-22.3 18.2,-40.5 40.5,-40.5 22.3,0 40.5,18.2 40.5,40.5 0,22.3 -18.2,40.5 -40.5,40.5 z"
       id="path8"
       inkscape:connector-curvature="0"
       style="fill:#1c2b36;fill-opacity:1" /><rect
       x="248"
       y="442.60001"
       width="16.200001"
       height="48.599998"
       id="rect10"
       style="fill:#1c2b36;fill-opacity:1" /><rect
       x="207.5"
       y="458.79999"
       width="16.200001"
       height="48.599998"
       id="rect12"
       style="fill:#1c2b36;fill-opacity:1" /><rect
       x="288.5"
       y="458.79999"
       width="16.200001"
       height="48.599998"
       id="rect14"
       style="fill:#1c2b36;fill-opacity:1" /></g></svg>