<?xml version="1.0" encoding="UTF-8" standalone="no"?>
<svg
   xmlns:dc="http://purl.org/dc/elements/1.1/"
   xmlns:cc="http://creativecommons.org/ns#"
   xmlns:rdf="http://www.w3.org/1999/02/22-rdf-syntax-ns#"
   xmlns:svg="http://www.w3.org/2000/svg"
   xmlns="http://www.w3.org/2000/svg"
   xmlns:sodipodi="http://sodipodi.sourceforge.net/DTD/sodipodi-0.dtd"
   xmlns:inkscape="http://www.inkscape.org/namespaces/inkscape"
   version="1.1"
   x="0px"
   y="0px"
   viewBox="0 0 48 48"
   id="svg2"
   inkscape:version="0.91 r13725"
   sodipodi:docname="elevator.svg"
   width="48"
   height="48">
  <metadata
     id="metadata12">
    <rdf:RDF>
      <cc:Work
         rdf:about="">
        <dc:format>image/svg+xml</dc:format>
        <dc:type
           rdf:resource="http://purl.org/dc/dcmitype/StillImage" />
        <dc:title />
      </cc:Work>
    </rdf:RDF>
  </metadata>
  <defs
     id="defs10" />
  <sodipodi:namedview
     pagecolor="#ffffff"
     bordercolor="#666666"
     borderopacity="1"
     objecttolerance="10"
     gridtolerance="10"
     guidetolerance="10"
     inkscape:pageopacity="0"
     inkscape:pageshadow="2"
     inkscape:window-width="1215"
     inkscape:window-height="776"
     id="namedview8"
     showgrid="false"
     fit-margin-left="4"
     fit-margin-top="4"
     fit-margin-right="4"
     fit-margin-bottom="4"
     inkscape:zoom="1.888"
     inkscape:cx="-15.350999"
     inkscape:cy="13.713156"
     inkscape:window-x="65"
     inkscape:window-y="24"
     inkscape:window-maximized="1"
     inkscape:current-layer="svg2"
     showborder="false" />
  <g
     transform="matrix(0.58548253,0,0,0.66160535,-4.7952168,-638.97562)"
     id="g4"
     style="fill:#c8b7b7;fill-opacity:1">
    <path
       style="color:#000000;text-indent:0;text-transform:none;direction:ltr;block-progression:tb;baseline-shift:baseline;display:inline;overflow:visible;visibility:visible;fill:#c8b7b7;fill-opacity:1;stroke:none;marker:none;enable-background:accumulate"
       d="m 49.793407,966.35594 a 1.9985276,2.0003733 0 0 0 -1.248955,0.5938 l -20.982441,22.00191 a 1.9985276,2.0003733 0 1 0 2.872596,2.78149 l 19.546143,-20.50177 19.546143,20.50177 a 1.9985276,2.0003733 0 1 0 2.872597,-2.78149 L 51.417049,966.94974 a 1.9985276,2.0003733 0 0 0 -1.623642,-0.5938 z m -20.982441,45.97276 a 1.9985276,2.0003733 0 0 0 -1.248955,3.4065 l 20.982441,22.0019 a 1.9985276,2.0003733 0 0 0 2.872597,0 l 20.982441,-22.0019 a 1.9985276,2.0003733 0 1 0 -2.872597,-2.7815 l -19.546143,20.5018 -19.546143,-20.5018 a 1.9985276,2.0003733 0 0 0 -1.623641,-0.625 z"
       visibility="visible"
       display="inline"
       overflow="visible"
       id="path6"
       inkscape:connector-curvature="0" />
  </g>
</svg>
