<?xml version="1.0" encoding="UTF-8" standalone="no"?>
<svg
   xmlns:dc="http://purl.org/dc/elements/1.1/"
   xmlns:cc="http://creativecommons.org/ns#"
   xmlns:rdf="http://www.w3.org/1999/02/22-rdf-syntax-ns#"
   xmlns:svg="http://www.w3.org/2000/svg"
   xmlns="http://www.w3.org/2000/svg"
   xmlns:sodipodi="http://sodipodi.sourceforge.net/DTD/sodipodi-0.dtd"
   xmlns:inkscape="http://www.inkscape.org/namespaces/inkscape"
   version="1.1"
   x="0px"
   y="0px"
   viewBox="0 0 48 48"
   enable-background="new 0 0 512 512"
   xml:space="preserve"
   id="svg2"
   inkscape:version="0.91 r13725"
   sodipodi:docname="noun_643393_cc.svg"
   width="48"
   height="48"><metadata
     id="metadata26"><rdf:RDF><cc:Work
         rdf:about=""><dc:format>image/svg+xml</dc:format><dc:type
           rdf:resource="http://purl.org/dc/dcmitype/StillImage" /><dc:title></dc:title></cc:Work></rdf:RDF></metadata><defs
     id="defs24" /><sodipodi:namedview
     pagecolor="#ffffff"
     bordercolor="#666666"
     borderopacity="1"
     objecttolerance="10"
     gridtolerance="10"
     guidetolerance="10"
     inkscape:pageopacity="0"
     inkscape:pageshadow="2"
     inkscape:window-width="1215"
     inkscape:window-height="776"
     id="namedview22"
     showgrid="false"
     inkscape:zoom="5.9"
     inkscape:cx="29.975022"
     inkscape:cy="45.913414"
     inkscape:window-x="65"
     inkscape:window-y="24"
     inkscape:window-maximized="1"
     inkscape:current-layer="svg2" /><g
     id="g4"
     style="fill:#1c2b36;fill-opacity:1"
     transform="matrix(0.09449273,0,0,0.09449284,-0.10341908,-0.19135)"><g
       id="g6"
       style="fill:#1c2b36;fill-opacity:1"><g
         id="g8"
         style="fill:#1c2b36;fill-opacity:1"><path
           d="M 256,510 C 147.5,510 59.3,421.8 59.3,313.3 59.3,207.2 242.3,12.7 250,4.5 c 3.1,-3.3 8.8,-3.3 11.9,0 7.8,8.2 190.7,202.7 190.7,308.9 C 452.7,421.8 364.5,510 256,510 Z M 256,22.2 C 224.2,56.9 75.7,223.9 75.7,313.3 c 0,99.4 80.9,180.3 180.3,180.3 99.4,0 180.3,-80.9 180.3,-180.3 C 436.3,223.9 287.8,56.9 256,22.2 Z"
           id="path10"
           style="fill:#1c2b36;fill-opacity:1"
           inkscape:connector-curvature="0" /></g></g><g
       id="g12"
       style="fill:#1c2b36;fill-opacity:1"><g
         id="g14"
         style="fill:#1c2b36;fill-opacity:1"><path
           d="m 256,452.6 c -76.8,0 -139.3,-62.5 -139.3,-139.3 0,-4.5 3.7,-8.2 8.2,-8.2 4.5,0 8.2,3.7 8.2,8.2 0,67.8 55.1,122.9 122.9,122.9 4.5,0 8.2,3.7 8.2,8.2 0,4.5 -3.7,8.2 -8.2,8.2 z"
           id="path16"
           style="fill:#1c2b36;fill-opacity:1"
           inkscape:connector-curvature="0" /></g></g></g></svg>