<?xml version="1.0" encoding="UTF-8" standalone="no"?>
<!-- Created with Inkscape (http://www.inkscape.org/) -->

<svg
   xmlns:dc="http://purl.org/dc/elements/1.1/"
   xmlns:cc="http://creativecommons.org/ns#"
   xmlns:rdf="http://www.w3.org/1999/02/22-rdf-syntax-ns#"
   xmlns:svg="http://www.w3.org/2000/svg"
   xmlns="http://www.w3.org/2000/svg"
   xmlns:sodipodi="http://sodipodi.sourceforge.net/DTD/sodipodi-0.dtd"
   xmlns:inkscape="http://www.inkscape.org/namespaces/inkscape"
   width="48"
   height="48"
   viewBox="0 0 48 48.000001"
   id="svg4427"
   version="1.1"
   inkscape:version="0.91 r13725"
   sodipodi:docname="launch.svg">
  <defs
     id="defs4429" />
  <sodipodi:namedview
     id="base"
     pagecolor="#ffffff"
     bordercolor="#666666"
     borderopacity="1.0"
     inkscape:pageopacity="0.0"
     inkscape:pageshadow="2"
     inkscape:zoom="1.979899"
     inkscape:cx="91.247744"
     inkscape:cy="11.334549"
     inkscape:document-units="px"
     inkscape:current-layer="g4451"
     showgrid="false"
     units="px"
     inkscape:window-width="1215"
     inkscape:window-height="776"
     inkscape:window-x="65"
     inkscape:window-y="24"
     inkscape:window-maximized="1" />
  <metadata
     id="metadata4432">
    <rdf:RDF>
      <cc:Work
         rdf:about="">
        <dc:format>image/svg+xml</dc:format>
        <dc:type
           rdf:resource="http://purl.org/dc/dcmitype/StillImage" />
        <dc:title />
      </cc:Work>
    </rdf:RDF>
  </metadata>
  <g
     inkscape:label="Layer 1"
     inkscape:groupmode="layer"
     id="layer1"
     transform="translate(0,-1004.3622)">
    <g
       id="g4451"
       transform="translate(488.17308,476.46642)">
      <g
         id="g4437"
         transform="matrix(0.65859927,0,0,0.65859342,-497.10304,-108.25335)"
         style="fill:#b3b3b3;fill-opacity:0.7019608">
        <path
           id="path4439"
           overflow="visible"
           display="inline"
           visibility="visible"
           style="color:#000000;text-indent:0;text-transform:none;direction:ltr;block-progression:tb;baseline-shift:baseline;display:inline;overflow:visible;visibility:visible;fill:#b3b3b3;fill-opacity:0.7019608;stroke:none;marker:none;enable-background:accumulate"
           d="m 84.188778,967.42283 c -4.9156,-2.83795 -11.8849,-1.41257 -19.7106,2.25394 -7.4889,3.50863 -15.8553,9.38376 -23.9754,16.94841 -2.1507,-1.02662 -4.6048,-1.20631 -6.9384,-0.79546 -2.8753,0.50611 -5.6387,1.83796 -7.6456,3.84491 l -6.363899,6.36396 c -0.8732,0.8957 -0.5862,2.6181 0.5303,3.182 l 6.518599,3.24821 c -1.2235,1.9102 -2.1421,3.2019 -3.800699,5.9663 -0.4625,0.7571 -0.3379,1.8232 0.2873,2.4527 l 18.384699,18.3848 c 0.6295,0.6252 1.6958,0.75 2.4528,0.2872 2.7644,-1.6585 4.056,-2.5771 5.9662,-3.8006 l 3.2483,6.5186 c 0.5639,1.1165 2.2865,1.4036 3.1819,0.5303 l 6.364,-6.3639 c 2.007,-2.007 3.3388,-4.7704 3.845,-7.6456 0.4107,-2.3338 0.2311,-4.7878 -0.7955,-6.9384 7.5646,-8.12 13.4398,-16.48661 16.9485,-23.97542 3.6664,-7.82575 5.0894,-14.79368 2.2537,-19.71062 -0.1552,-0.41616 -0.5241,-0.63706 -0.7512,-0.75133 z m -2.5392,3.28898 c 1.2984,2.9594 0.6489,8.54237 -2.5854,15.44589 -3.4189,7.29729 -9.3782,15.8509 -17.1916,24.0416 -0.6496,0.678 -0.7188,1.8346 -0.1547,2.5853 0.9369,1.2656 1.2522,3.2116 0.884,5.3033 -0.3681,2.0919 -1.4417,4.226 -2.74,5.5243 l -4.3973,4.3973 -3.0052,-6.0104 c -0.4929,-0.975 -1.8671,-1.3754 -2.8064,-0.8175 -3.0014,1.8008 -4.2216,2.715 -6.4744,4.1321 l -16.1309,-16.1308 c 1.4172,-2.2528 2.3313,-3.4731 4.1322,-6.4745 0.5575,-0.9395 0.1575,-2.3134 -0.8176,-2.80631 l -6.0104,-3.0052 4.3972,-4.3974 c 1.2985,-1.29827 3.4326,-2.37187 5.5243,-2.73997 2.0917,-0.36826 4.0379,-0.0529 5.3034,0.88393 0.7506,0.56405 1.9073,0.49488 2.5854,-0.15472 8.1906,-7.8133 16.7442,-13.77256 24.0415,-17.1916 6.9034,-3.2344 12.4865,-3.8838 15.4459,-2.58532 z m -10.474,10.474 c -3.1075,-3.10743 -8.2063,-3.10737 -11.3137,2e-5 -3.1074,3.10741 -3.1075,8.20626 0,11.31366 3.1075,3.1075 8.2062,3.1075 11.3137,0 3.1074,-3.10738 3.1075,-8.2062 0,-11.31368 z m -2.8284,2.82848 c 1.5786,1.57864 1.5786,4.07808 -1e-4,5.65681 -1.5787,1.57871 -4.0781,1.57868 -5.6568,-10e-6 -1.5788,-1.5788 -1.5787,-4.07809 0,-5.65684 1.5787,-1.57877 4.078,-1.57886 5.6569,4e-5 z m -43.5314,32.21751 c -0.6754,-0.5048 -1.679499,-0.5142 -2.364299,-0.022 -0.9956,0.7166 -1.9773,1.5353 -2.8947,2.4528 -2.7727,2.7725 -4.6493,5.9529 -5.5022,9.1261 -0.8504,3.1738 -0.6697,6.4265 1.0386,8.9493 0.1414,0.2079 0.3223,0.3889 0.5303,0.5303 2.5227,1.7082 5.7762,1.8914 8.949299,1.0386 3.1732,-0.8529 6.3535,-2.7296 9.1261,-5.5022 0.9175,-0.9176 1.7363,-1.8994 2.4528,-2.8947 0.5051,-0.7489 0.4125,-1.8447 -0.2105,-2.4985 -0.6231,-0.6538 -1.7132,-0.7985 -2.4855,-0.33 -3.0018,1.949 -5.4651,1.4292 -7.535,-0.6407 -2.07,-2.0701 -2.589899,-4.5334 -0.6408,-7.5351 0.5229,-1.0771 0.2459,-2.063 -0.4641,-2.6738 z m -4.397099,7.7561 c 0.345,1.9745 1.2273,3.8348 2.6737,5.2812 1.446299,1.4464 3.306699,2.3287 5.281199,2.6738 -1.6297,1.1556 -3.2972,2.0986 -4.861299,2.5191 -2.1871,0.5877 -3.9787,0.3476 -5.2592,-0.3536 -0.7012,-1.2805 -0.9412,-3.072 -0.3535,-5.2591 0.4192,-1.5646 1.3634,-3.2317 2.5191,-4.8614 z"
           inkscape:connector-curvature="0" />
      </g>
    </g>
  </g>
</svg>
