<?xml version="1.0" encoding="UTF-8" standalone="no"?>
<svg
   xmlns:dc="http://purl.org/dc/elements/1.1/"
   xmlns:cc="http://creativecommons.org/ns#"
   xmlns:rdf="http://www.w3.org/1999/02/22-rdf-syntax-ns#"
   xmlns:svg="http://www.w3.org/2000/svg"
   xmlns="http://www.w3.org/2000/svg"
   xmlns:xlink="http://www.w3.org/1999/xlink"
   xmlns:sodipodi="http://sodipodi.sourceforge.net/DTD/sodipodi-0.dtd"
   xmlns:inkscape="http://www.inkscape.org/namespaces/inkscape"
   version="1.1"
   x="0px"
   y="0px"
   viewBox="0 0 48 48"
   enable-background="new 0 0 62.5 100"
   xml:space="preserve"
   id="svg2"
   inkscape:version="0.91 r13725"
   sodipodi:docname="noBattery.svg"
   width="48"
   height="48"><metadata
     id="metadata10"><rdf:RDF><cc:Work
         rdf:about=""><dc:format>image/svg+xml</dc:format><dc:type
           rdf:resource="http://purl.org/dc/dcmitype/StillImage" /><dc:title></dc:title></cc:Work></rdf:RDF></metadata><defs
     id="defs8"><linearGradient
       inkscape:collect="always"
       id="linearGradient4341"><stop
         style="stop-color:#1c2b36;stop-opacity:1;"
         offset="0"
         id="stop4343" /><stop
         style="stop-color:#1c2b36;stop-opacity:0;"
         offset="1"
         id="stop4345" /></linearGradient><linearGradient
       inkscape:collect="always"
       xlink:href="#linearGradient4341"
       id="linearGradient4347"
       x1="7.7715013"
       y1="27.068707"
       x2="40.153212"
       y2="27.068707"
       gradientUnits="userSpaceOnUse"
       gradientTransform="matrix(1.2759217,0,0,0.7975459,-6.6942235,6.3304986)" /></defs><sodipodi:namedview
     pagecolor="#ffffff"
     bordercolor="#666666"
     borderopacity="1"
     objecttolerance="10"
     gridtolerance="10"
     guidetolerance="10"
     inkscape:pageopacity="0"
     inkscape:pageshadow="2"
     inkscape:window-width="1215"
     inkscape:window-height="776"
     id="namedview6"
     showgrid="false"
     inkscape:zoom="11.794541"
     inkscape:cx="16.283153"
     inkscape:cy="22.64588"
     inkscape:window-x="65"
     inkscape:window-y="24"
     inkscape:window-maximized="1"
     inkscape:current-layer="svg2" /><path
     d="M 38.17488,6.7648421 C 37.60032,6.2196203 36.71232,5.9470094 35.51232,5.9470094 l -5.51232,0 0,-2.4901318 C 30,2.2674757 29.72544,1.3877941 29.17488,0.81783273 28.60032,0.27261091 27.71232,0 26.51232,0 l -5.02464,0 c -1.2,0 -2.08752,0.27261091 -2.66256,0.81783273 C 18.27504,1.3877941 18,2.2674757 18,3.4568776 l 0,2.4901318 -5.51232,0 c -1.2,0 -2.08752,0.2726109 -2.66256,0.8178327 C 9.27504,7.3348035 9,8.2144851 9,9.403887 l 0,34.715786 c 0,1.189402 0.27504,2.069559 0.82512,2.639045 0.57504,0.545222 1.46256,0.817357 2.66256,0.817357 l 23.02512,0 c 1.2,0 2.088,-0.272135 2.66256,-0.817833 0.55008,-0.569485 0.82512,-1.449643 0.82512,-2.639045 l 0,-34.71531 C 39,8.2144851 38.72544,7.3348035 38.17488,6.7648421 M 15,11.894019 l 18,0 0,29.735047 -18,0 0,-29.735047"
     id="path4"
     inkscape:connector-curvature="0"
     style="fill:#1c2b36;fill-opacity:1" /><rect
     style="fill:#ffffff;fill-opacity:1;stroke:#ffffff;stroke-width:0.10291019;stroke-miterlimit:4;stroke-dasharray:none;stroke-opacity:1"
     id="rect4133"
     width="23.727522"
     height="36.879669"
     x="12.13624"
     y="8.3905945" /><rect
     style="fill:#ffffff;fill-opacity:1;stroke:#ffffff;stroke-width:0.1;stroke-miterlimit:4;stroke-dasharray:none;stroke-opacity:1"
     id="rect4135"
     width="0.63559324"
     height="0.95338982"
     x="-13.241526"
     y="11.347458" /><path
     style="fill:#1c2b36;fill-opacity:1;fill-rule:evenodd;stroke:#1c2b36;stroke-width:2.34562206;stroke-linecap:butt;stroke-linejoin:miter;stroke-miterlimit:4;stroke-dasharray:none;stroke-opacity:1"
     d="M 4.7714856,11.113723 43.137316,44.342711"
     id="path4309"
     inkscape:connector-curvature="0" /><path
     style="fill:url(#linearGradient4347);fill-opacity:1;fill-rule:evenodd;stroke:#1c2b36;stroke-width:2.3626442;stroke-linecap:butt;stroke-linejoin:miter;stroke-miterlimit:4;stroke-dasharray:none;stroke-opacity:1"
     d="M 4.7727519,44.443653 42.986987,11.394417"
     id="path4313"
     inkscape:connector-curvature="0" /></svg>