<svg xmlns:dc="http://purl.org/dc/elements/1.1/" xmlns:cc="http://creativecommons.org/ns#" xmlns:rdf="http://www.w3.org/1999/02/22-rdf-syntax-ns#" xmlns:svg="http://www.w3.org/2000/svg" xmlns="http://www.w3.org/2000/svg" xmlns:sodipodi="http://sodipodi.sourceforge.net/DTD/sodipodi-0.dtd" xmlns:inkscape="http://www.inkscape.org/namespaces/inkscape" version="1.1" x="0px" y="0px" viewBox="0 0 100 125"><g transform="translate(0,-952.36218)"><path style="font-size:medium;font-style:normal;font-variant:normal;font-weight:normal;font-stretch:normal;text-indent:0;text-align:start;text-decoration:none;line-height:normal;letter-spacing:normal;word-spacing:normal;text-transform:none;direction:ltr;block-progression:tb;writing-mode:lr-tb;text-anchor:start;baseline-shift:baseline;opacity:1;color:#000000;fill:#000000;fill-opacity:1;stroke:none;stroke-width:2.70758127999999990;marker:none;visibility:visible;display:inline;overflow:visible;enable-background:accumulate;font-family:Sans;-inkscape-font-specification:Sans" d="M 50 5.96875 C 39.530286 5.96875 31.03125 14.53028 31.03125 25 C 31.03125 34.79446 38.468105 42.93145 48 43.9375 L 48 76 L 27 76 A 2.0002002 2.0002002 0 0 0 26.21875 76.15625 L 12.21875 82.15625 A 2.0002002 2.0002002 0 0 0 11 84 L 11 92 A 2.0002002 2.0002002 0 0 0 13 94 L 87 94 A 2.0002002 2.0002002 0 0 0 89 92 L 89 84 A 2.0002002 2.0002002 0 0 0 87.78125 82.15625 L 73.78125 76.15625 A 2.0002002 2.0002002 0 0 0 73 76 L 58 76 A 2.0002002 2.0002002 0 1 0 58 80 L 72.65625 80 L 85 85.28125 L 85 90 L 15 90 L 15 85.28125 L 27.34375 80 L 50 80 A 2.0002002 2.0002002 0 0 0 52 78 L 52 43.9375 C 61.536656 42.931006 69 34.794131 69 25 C 69 14.53028 60.469714 5.96875 50 5.96875 z M 50 10 C 58.307932 10 65 16.69204 65 25 C 65 33.30796 58.307932 40 50 40 C 41.692068 40 35 33.30796 35 25 C 35 16.69204 41.692068 10 50 10 z " transform="translate(0,952.36218)"/></g></svg>
