<?xml version="1.0" encoding="UTF-8" standalone="no"?>
<svg
   xmlns:dc="http://purl.org/dc/elements/1.1/"
   xmlns:cc="http://creativecommons.org/ns#"
   xmlns:rdf="http://www.w3.org/1999/02/22-rdf-syntax-ns#"
   xmlns:svg="http://www.w3.org/2000/svg"
   xmlns="http://www.w3.org/2000/svg"
   xmlns:sodipodi="http://sodipodi.sourceforge.net/DTD/sodipodi-0.dtd"
   xmlns:inkscape="http://www.inkscape.org/namespaces/inkscape"
   version="1.1"
   x="0px"
   y="0px"
   viewBox="0 0 88 72"
   id="svg3386"
   inkscape:version="0.91 r13725"
   sodipodi:docname="openBox.svg">
  <metadata
     id="metadata3396">
    <rdf:RDF>
      <cc:Work
         rdf:about="">
        <dc:format>image/svg+xml</dc:format>
        <dc:type
           rdf:resource="http://purl.org/dc/dcmitype/StillImage" />
        <dc:title></dc:title>
      </cc:Work>
    </rdf:RDF>
  </metadata>
  <defs
     id="defs3394" />
  <sodipodi:namedview
     pagecolor="#ffffff"
     bordercolor="#666666"
     borderopacity="1"
     objecttolerance="10"
     gridtolerance="10"
     guidetolerance="10"
     inkscape:pageopacity="0"
     inkscape:pageshadow="2"
     inkscape:window-width="1215"
     inkscape:window-height="776"
     id="namedview3392"
     showgrid="false"
     inkscape:zoom="4.856"
     inkscape:cx="14.37397"
     inkscape:cy="62.5"
     inkscape:window-x="65"
     inkscape:window-y="24"
     inkscape:window-maximized="1"
     inkscape:current-layer="svg3386" />
  <g
     id="g3398"
     transform="translate(-5.9719934,-13.797364)">
    <g
       id="g3388"
       transform="translate(0,-952.36218)">
      <path
         id="path3390"
         transform="translate(0,952.36218)"
         d="M 47.8125,14 A 2.0002,2.0002 0 0 0 47,14.25 l -30,17 a 2.0002,2.0002 0 0 0 -0.46875,0.40625 l -10,11 a 2.0002,2.0002 0 0 0 0.4375,3.0625 L 16,51.125 16,67 a 2.0002,2.0002 0 0 0 1,1.75 l 30,17 a 2.0002,2.0002 0 0 0 2,0 l 30,-17 A 2.0002,2.0002 0 0 0 80,67 l 0,-32 12,0 a 2.0002,2.0002 0 0 0 1,-3.75 l -30,-17 A 2.0002,2.0002 0 0 0 62,14 l -14,0 a 2.0002,2.0002 0 0 0 -0.1875,0 z m 7.78125,4 5.84375,0 L 84.375,31 78.5625,31 55.59375,18 Z M 50,19.40625 73.9375,32.96875 50,46.5625 50,19.40625 Z M 46,19.4375 46,46.59375 22.09375,33 46,19.4375 Z m -27.59375,16.09375 26.5,15.0625 -7.34375,8.8125 L 19.09375,48.3125 a 2.0002,2.0002 0 0 0 -0.0625,-0.03125 l -7.90625,-4.75 7.28125,-8 z M 76,36.40625 l 0,29.40625 -26,14.75 0,-29.40625 26,-14.75 z M 20,53.5 36.96875,63.6875 a 2.0002,2.0002 0 0 0 2.5625,-0.40625 L 46,55.53125 46,80.5625 20,65.8125 20,53.5 Z"
         style="color:#000000;font-style:normal;font-variant:normal;font-weight:normal;font-stretch:normal;font-size:medium;line-height:normal;font-family:Sans;-inkscape-font-specification:Sans;text-indent:0;text-align:start;text-decoration:none;text-decoration-line:none;letter-spacing:normal;word-spacing:normal;text-transform:none;direction:ltr;block-progression:tb;writing-mode:lr-tb;baseline-shift:baseline;text-anchor:start;display:inline;overflow:visible;visibility:visible;opacity:1;fill:#000000;fill-opacity:1;stroke:none;stroke-width:4;marker:none;enable-background:accumulate"
         inkscape:connector-curvature="0" />
    </g>
  </g>
</svg>
