<?xml version="1.0" encoding="UTF-8" standalone="no"?>
<svg
   xmlns:dc="http://purl.org/dc/elements/1.1/"
   xmlns:cc="http://creativecommons.org/ns#"
   xmlns:rdf="http://www.w3.org/1999/02/22-rdf-syntax-ns#"
   xmlns:svg="http://www.w3.org/2000/svg"
   xmlns="http://www.w3.org/2000/svg"
   xmlns:sodipodi="http://sodipodi.sourceforge.net/DTD/sodipodi-0.dtd"
   xmlns:inkscape="http://www.inkscape.org/namespaces/inkscape"
   version="1.1"
   x="0px"
   y="0px"
   viewBox="0 0 48 48"
   id="svg2"
   inkscape:version="0.91 r13725"
   sodipodi:docname="openingBox.svg"
   width="48"
   height="48">
  <metadata
     id="metadata22">
    <rdf:RDF>
      <cc:Work
         rdf:about="">
        <dc:format>image/svg+xml</dc:format>
        <dc:type
           rdf:resource="http://purl.org/dc/dcmitype/StillImage" />
        <dc:title></dc:title>
      </cc:Work>
    </rdf:RDF>
  </metadata>
  <defs
     id="defs20" />
  <sodipodi:namedview
     pagecolor="#ffffff"
     bordercolor="#666666"
     borderopacity="1"
     objecttolerance="10"
     gridtolerance="10"
     guidetolerance="10"
     inkscape:pageopacity="0"
     inkscape:pageshadow="2"
     inkscape:window-width="1215"
     inkscape:window-height="776"
     id="namedview18"
     showgrid="false"
     inkscape:zoom="4.7066795"
     inkscape:cx="40.389646"
     inkscape:cy="24.784218"
     inkscape:window-x="65"
     inkscape:window-y="24"
     inkscape:window-maximized="1"
     inkscape:current-layer="svg2"
     inkscape:snap-others="true" />
  <g
     transform="matrix(0.60383101,0,0,0.60383101,-5.8985085,-580.28142)"
     id="g4">
    <g
       transform="translate(0.5750351,0)"
       id="g6">
      <rect
         y="991.29108"
         x="12.099533"
         height="47.951061"
         width="74.650864"
         style="color:#000000;display:inline;overflow:visible;visibility:visible;fill:none;stroke:#000000;stroke-width:2.5;stroke-linecap:round;stroke-linejoin:round;stroke-miterlimit:4;stroke-dasharray:none;stroke-dashoffset:0;stroke-opacity:1;marker:none;enable-background:accumulate"
         stroke-miterlimit="4"
         visibility="visible"
         display="inline"
         overflow="visible"
         id="rect8" />
      <path
         d="m 12.187705,991.29102 36.434565,-4.41006 0,-20.54695 -23.930625,2.80641 z"
         style="fill:none;stroke:#000000;stroke-width:2.5;stroke-linecap:round;stroke-linejoin:round;stroke-miterlimit:4;stroke-dasharray:none;stroke-opacity:1"
         stroke-miterlimit="4"
         id="path10"
         inkscape:connector-curvature="0" />
      <path
         d="m 49.850664,991.09917 0,-22.11226 23.980797,0 12.884353,22.2923 z"
         style="fill:none;stroke:#000000;stroke-width:2.5;stroke-linecap:round;stroke-linejoin:round;stroke-miterlimit:4;stroke-dasharray:none;stroke-opacity:1"
         stroke-miterlimit="4"
         id="path12"
         inkscape:connector-curvature="0" />
    </g>
  </g>
  <path
     style="fill:#666666;fill-opacity:1"
     d="m 13.623954,9.4636884 c -1.64084,-1.4833028 -6.5927081,-2.061742 -6.5927081,-2.061742 0,0 0.039577,-0.043489 0.2370645,1.3486812 L 7.540021,10.666004 4.2580805,8.3158409 1.3256921,6.4184223 3.2972352,3.3324548 5.5505907,3.1192569e-6 5.9188513,1.876052 6.255776,3.1500025 7.4306253,3.0033036 c 1.4148247,-0.176653 3.4071477,1.0146175 4.5850207,2.1519318 0.926815,0.8949103 3.242004,5.4113936 3.049961,5.6771276 -0.0403,0.05571 -0.928783,-0.9049925 -1.441697,-1.3686678 z"
     id="path3409"
     inkscape:connector-curvature="0"
     sodipodi:nodetypes="scscccccccsscs"
     inkscape:transform-center-x="-0.22079954"
     inkscape:transform-center-y="-3.3281624" />
  <path
     style="fill:#666666;fill-opacity:1"
     d="m 33.371043,11.901126 c 0.368738,-1.244893 1.564839,-3.8364526 2.277537,-4.9346793 0.380409,-0.5861885 0.63847,-0.8642169 1.304161,-1.4050789 0.899343,-0.7306985 1.903312,-1.2815756 2.648345,-1.4531455 0.25891,-0.059626 0.79825,-0.094233 1.198533,-0.076924 0.400282,0.01732 0.761606,-0.0091 0.802943,-0.058739 0.04134,-0.04963 0.161487,-0.757026 0.266995,-1.572003 L 42.06145,0.91878761 43.470152,2.7355473 c 0.774788,0.9992183 1.805949,2.362566 2.291471,3.0296634 l 0.882768,1.2129054 -1.608583,1.2050821 c -0.88472,0.6627963 -2.172614,1.675275 -2.861985,2.2499548 -0.689369,0.57468 -1.276462,1.026169 -1.304649,1.003308 -0.02819,-0.02286 0.0092,-0.731566 0.08319,-1.5749013 0.07394,-0.8433334 0.101522,-1.5375646 0.06129,-1.542738 -0.177202,-0.022779 -2.60842,0.6303447 -3.468697,0.9318404 -1.783226,0.624953 -2.532249,1.0803969 -3.391235,2.0620419 -0.279455,0.319359 -0.594749,0.666411 -0.700656,0.771224 l -0.192556,0.190569 0.110587,-0.373371 z"
     id="path3430"
     inkscape:connector-curvature="0" />
</svg>
