<?xml version="1.0" encoding="UTF-8" standalone="no"?>
<svg
   xmlns:dc="http://purl.org/dc/elements/1.1/"
   xmlns:cc="http://creativecommons.org/ns#"
   xmlns:rdf="http://www.w3.org/1999/02/22-rdf-syntax-ns#"
   xmlns:svg="http://www.w3.org/2000/svg"
   xmlns="http://www.w3.org/2000/svg"
   xmlns:sodipodi="http://sodipodi.sourceforge.net/DTD/sodipodi-0.dtd"
   xmlns:inkscape="http://www.inkscape.org/namespaces/inkscape"
   version="1.1"
   x="0px"
   y="0px"
   viewBox="0 0 48 48"
   enable-background="new 0 0 100 100"
   xml:space="preserve"
   id="svg2"
   inkscape:version="0.91 r13725"
   sodipodi:docname="noun_78613_cc.svg"
   width="48"
   height="48"><metadata
     id="metadata32"><rdf:RDF><cc:Work
         rdf:about=""><dc:format>image/svg+xml</dc:format><dc:type
           rdf:resource="http://purl.org/dc/dcmitype/StillImage" /><dc:title></dc:title></cc:Work></rdf:RDF></metadata><defs
     id="defs30" /><sodipodi:namedview
     pagecolor="#ffffff"
     bordercolor="#666666"
     borderopacity="1"
     objecttolerance="10"
     gridtolerance="10"
     guidetolerance="10"
     inkscape:pageopacity="0"
     inkscape:pageshadow="2"
     inkscape:window-width="1215"
     inkscape:window-height="776"
     id="namedview28"
     showgrid="false"
     inkscape:zoom="2.6700352"
     inkscape:cx="70.992775"
     inkscape:cy="49.410609"
     inkscape:window-x="65"
     inkscape:window-y="24"
     inkscape:window-maximized="1"
     inkscape:current-layer="svg2" /><circle
     stroke-miterlimit="10"
     cx="24"
     cy="24"
     r="22.945055"
     id="circle4"
     style="fill:none;stroke:#1c2b36;stroke-width:2.10989022;stroke-miterlimit:10;stroke-opacity:1" /><g
     id="g6"
     transform="matrix(0.52747253,0,0,0.52747253,-2.3736263,-2.373626)"
     style="stroke:#1c2b36;stroke-opacity:1"><path
       d="M 20.3,67.1 C 20.1,66.8 20,66.5 19.8,66.2 l 0.9,-0.5 c 0.2,0.3 0.3,0.6 0.5,0.8 l -0.9,0.6 z m 59.3,0.3 -0.9,-0.5 c 0.2,-0.3 0.3,-0.6 0.5,-0.8 l 0.9,0.5 c -0.1,0.2 -0.3,0.5 -0.5,0.8 z M 17,59.8 c -0.1,-0.3 -0.2,-0.6 -0.3,-1 l 1,-0.3 c 0.1,0.3 0.2,0.6 0.3,0.9 l -1,0.4 z m 65.9,0.3 -1,-0.3 c 0.1,-0.3 0.2,-0.6 0.3,-0.9 l 1,0.3 c -0.1,0.2 -0.2,0.5 -0.3,0.9 z M 15.5,51.9 c 0,-0.3 0,-0.7 -0.1,-1 l 1,0 c 0,0.3 0,0.6 0.1,1 l -1,0 z m 69,0.3 -1,-0.1 c 0,-0.3 0,-0.6 0.1,-1 l 0,-0.1 1,0 0,0.1 c -0.1,0.4 -0.1,0.8 -0.1,1.1 z m -67.6,-8.1 -1,-0.2 c 0.1,-0.3 0.1,-0.7 0.2,-1 l 1,0.2 c -0.1,0.4 -0.1,0.7 -0.2,1 z m 66.3,0.1 C 83.1,43.9 83.1,43.6 83,43.2 L 84,43 c 0.1,0.3 0.1,0.7 0.2,1 l -1,0.2 z M 19,36.6 18.1,36.2 c 0.1,-0.3 0.3,-0.6 0.4,-0.9 l 0.9,0.4 C 19.3,36 19.2,36.3 19,36.6 Z m 62,0.1 c -0.1,-0.3 -0.3,-0.6 -0.4,-0.9 l 0.9,-0.4 c 0.1,0.3 0.3,0.6 0.4,0.9 L 81,36.7 Z M 22.9,29.8 22,29.2 c 0.2,-0.3 0.4,-0.5 0.6,-0.8 l 0.8,0.6 c -0.2,0.3 -0.3,0.6 -0.5,0.8 z m 54.4,0.1 c -0.2,-0.3 -0.4,-0.5 -0.6,-0.8 l 0.8,-0.6 c 0.2,0.3 0.4,0.5 0.6,0.8 l -0.8,0.6 z M 28.1,24.1 27.4,23.3 c 0.3,-0.2 0.5,-0.4 0.8,-0.6 l 0.6,0.8 c -0.2,0.2 -0.4,0.4 -0.7,0.6 z M 72,24.2 C 71.8,24 71.5,23.8 71.3,23.6 l 0.6,-0.8 c 0.3,0.2 0.5,0.4 0.8,0.6 L 72,24.2 Z M 34.6,19.7 34.1,18.8 c 0.3,-0.2 0.6,-0.3 0.9,-0.4 l 0.4,0.9 c -0.2,0.1 -0.5,0.3 -0.8,0.4 z m 31,0.1 C 65.3,19.6 65,19.5 64.7,19.4 l 0.4,-0.9 c 0.3,0.1 0.6,0.3 0.9,0.5 l -0.4,0.8 z M 41.9,17 41.7,16 c 0.3,-0.1 0.7,-0.2 1,-0.2 l 0.2,1 c -0.4,0 -0.7,0.1 -1,0.2 z m 16.4,0 c -0.3,-0.1 -0.6,-0.2 -1,-0.2 l 0.2,-1 c 0.3,0.1 0.7,0.1 1,0.2 l -0.2,1 z m -8.7,-1 0,-1 c 0.3,0 0.7,0 1,0 l 0,1 c -0.4,0 -0.7,0 -1,0 z"
       id="path8"
       inkscape:connector-curvature="0"
       style="stroke:#1c2b36;stroke-opacity:1" /></g><circle
     cx="24"
     cy="23.789009"
     r="1.3186814"
     id="circle10"
     style="stroke:#1c2b36;stroke-opacity:1" /><polygon
     points="51.5,53.4 27,24.4 53.6,51.5 "
     id="polygon12"
     transform="matrix(0.52747253,0,0,0.52747253,-2.3736263,-2.373626)"
     style="fill:#1c2b36;fill-opacity:1;stroke:#1c2b36;stroke-opacity:1" /><g
     id="g14"
     transform="matrix(0.52747253,0,0,0.52747253,-2.3736263,-2.373626)"
     style="fill:none;fill-opacity:1;stroke:none;stroke-opacity:1"><path
       d="M 86.5,51.8 C 87.5,31.7 71.9,14.6 51.8,13.6 31.7,12.6 14.5,28.1 13.5,48.2 13.1,57.1 15.9,65.4 20.9,72 l 58.2,0 c 4.3,-5.7 7,-12.6 7.4,-20.2 z"
       id="path16"
       inkscape:connector-curvature="0"
       style="fill:none;fill-opacity:1;stroke:none;stroke-opacity:1" /><path
       d="M 51.9,11.5 C 30.7,10.5 12.6,26.9 11.6,48.1 11.1,57 13.7,65.3 18.4,72 l 2.5,0 c -5,-6.6 -7.8,-14.9 -7.4,-23.8 1,-20.1 18.1,-35.7 38.2,-34.7 20.1,1 35.7,18.1 34.7,38.2 C 86,59.3 83.3,66.3 79,71.9 l 2.5,0 C 85.5,66.2 88,59.3 88.4,51.8 89.5,30.7 73.1,12.6 51.9,11.5 Z"
       id="path18"
       inkscape:connector-curvature="0"
       style="fill:none;fill-opacity:1;stroke:none;stroke-opacity:1" /></g><rect
     x="-20.708639"
     y="30.296522"
     transform="matrix(0.70710678,-0.70710678,0.70710678,0.70710678,0,0)"
     width="3.6922722"
     height="1.054935"
     id="rect20"
     style="stroke:#1c2b36;stroke-opacity:1" /><rect
     x="-54.528645"
     y="2.5044885"
     transform="matrix(-0.70710678,-0.70710678,0.70710678,-0.70710678,0,0)"
     width="3.6922722"
     height="1.054935"
     id="rect22"
     style="stroke:#1c2b36;stroke-opacity:1" /></svg>