<?xml version="1.0" encoding="UTF-8" standalone="no"?>
<svg
   xmlns:dc="http://purl.org/dc/elements/1.1/"
   xmlns:cc="http://creativecommons.org/ns#"
   xmlns:rdf="http://www.w3.org/1999/02/22-rdf-syntax-ns#"
   xmlns:svg="http://www.w3.org/2000/svg"
   xmlns="http://www.w3.org/2000/svg"
   xmlns:sodipodi="http://sodipodi.sourceforge.net/DTD/sodipodi-0.dtd"
   xmlns:inkscape="http://www.inkscape.org/namespaces/inkscape"
   version="1.1"
   x="0px"
   y="0px"
   viewBox="0 0 48 48"
   id="svg2"
   inkscape:version="0.91 r13725"
   sodipodi:docname="rain.svg"
   width="48"
   height="48">
  <metadata
     id="metadata16">
    <rdf:RDF>
      <cc:Work
         rdf:about="">
        <dc:format>image/svg+xml</dc:format>
        <dc:type
           rdf:resource="http://purl.org/dc/dcmitype/StillImage" />
        <dc:title />
      </cc:Work>
    </rdf:RDF>
  </metadata>
  <defs
     id="defs14" />
  <sodipodi:namedview
     pagecolor="#ffffff"
     bordercolor="#666666"
     borderopacity="1"
     objecttolerance="10"
     gridtolerance="10"
     guidetolerance="10"
     inkscape:pageopacity="0"
     inkscape:pageshadow="2"
     inkscape:window-width="1215"
     inkscape:window-height="776"
     id="namedview12"
     showgrid="false"
     inkscape:zoom="10.680141"
     inkscape:cx="18.976839"
     inkscape:cy="20.118688"
     inkscape:window-x="65"
     inkscape:window-y="24"
     inkscape:window-maximized="1"
     inkscape:current-layer="svg2" />
  <g
     transform="matrix(0.57142857,0,0,0.57142837,-4.5714283,-548.77819)"
     id="g4"
     style="fill:#1c2b36;fill-opacity:1;stroke-width:1.57500028;stroke-miterlimit:4;stroke-dasharray:none;stroke:#1c2b36;stroke-opacity:1">
    <path
       style="color:#000000;text-indent:0;text-transform:none;direction:ltr;block-progression:tb;baseline-shift:baseline;display:inline;overflow:visible;visibility:visible;fill:#1c2b36;fill-opacity:1;stroke:#1c2b36;marker:none;enable-background:accumulate;stroke-width:1.57500028;stroke-miterlimit:4;stroke-dasharray:none;stroke-opacity:1"
       d="m 58,974.36218 c 12.147001,0 20.876901,10.0998 21.125,20.875 7.421199,2.223 12.875,8.99212 12.875,17.12502 0,9.9293 -8.070701,18 -18,18 l -48,0 c -10.606,0 -18.0000005,-7.1236 -18.0000005,-16 0,-7.1804 4.8829005,-14.1542 12.0937995,-15.78132 0.2459,-5.8828 3.043899,-10.2763 6.906201,-12.5937 3.787498,-2.2725 8.4651,-2.5489 12.5938,-0.8125 3.3101,-5.9681 9.831,-10.8125 18.4062,-10.8125 z m 0,2 c -8.1575,0 -14.250901,4.7517 -17.093801,10.4375 a 1.0001,1.0001 0 0 1 -1.343699,0.4375 c -3.687,-1.8435 -8.1039,-1.6064 -11.5625,0.4687 -3.458601,2.0752 -6,5.9619 -6,11.6563 a 1.0001,1.0001 0 0 1 -0.843801,0.96872 c -6.5514,1.0993 -11.1561995,7.5352 -11.1561995,14.0313 0,7.7829 6.2685985,14 16.0000005,14 l 48,0 c 8.8485,0 16,-7.1516 16,-16 0,-7.4872 -5.133201,-13.74552 -12.0625,-15.50002 a 1.0001,1.0001 0 0 1 -0.75,-1 c 0.095,-9.9308 -7.925601,-19.5 -19.1875,-19.5 z"
       visibility="visible"
       display="inline"
       overflow="visible"
       id="path6"
       inkscape:connector-curvature="0" />
  </g>
</svg>
