<?xml version="1.0" encoding="UTF-8" standalone="no"?>
<svg
   xmlns:dc="http://purl.org/dc/elements/1.1/"
   xmlns:cc="http://creativecommons.org/ns#"
   xmlns:rdf="http://www.w3.org/1999/02/22-rdf-syntax-ns#"
   xmlns:svg="http://www.w3.org/2000/svg"
   xmlns="http://www.w3.org/2000/svg"
   xmlns:sodipodi="http://sodipodi.sourceforge.net/DTD/sodipodi-0.dtd"
   xmlns:inkscape="http://www.inkscape.org/namespaces/inkscape"
   version="1.1"
   x="0px"
   y="0px"
   viewBox="206 206 48 48"
   enable-background="new 206 206 100 100"
   xml:space="preserve"
   id="svg2"
   inkscape:version="0.91 r13725"
   sodipodi:docname="thermometer.svg"
   width="48"
   height="48"><metadata
     id="metadata14"><rdf:RDF><cc:Work
         rdf:about=""><dc:format>image/svg+xml</dc:format><dc:type
           rdf:resource="http://purl.org/dc/dcmitype/StillImage" /><dc:title></dc:title></cc:Work></rdf:RDF></metadata><defs
     id="defs12" /><sodipodi:namedview
     pagecolor="#ffffff"
     bordercolor="#666666"
     borderopacity="1"
     objecttolerance="10"
     gridtolerance="10"
     guidetolerance="10"
     inkscape:pageopacity="0"
     inkscape:pageshadow="2"
     inkscape:window-width="1215"
     inkscape:window-height="776"
     id="namedview10"
     showgrid="false"
     inkscape:zoom="3.776"
     inkscape:cx="31.105356"
     inkscape:cy="55.163813"
     inkscape:window-x="65"
     inkscape:window-y="24"
     inkscape:window-maximized="1"
     inkscape:current-layer="svg2" /><g
     id="g4"
     transform="matrix(0.54717416,0,0,0.54717691,90.240463,89.92298)"
     style="fill:#1c2b36;fill-opacity:1"><path
       d="m 267.385,274.599 0,-51.08 c 0,-6.277 -5.109,-11.381 -11.386,-11.381 -6.277,0 -11.385,5.104 -11.385,11.381 l 0,51.08 c -2.462,2.78 -3.814,6.338 -3.814,10.066 0,8.38 6.819,15.196 15.199,15.196 8.382,0 15.199,-6.816 15.199,-15.196 0,-3.728 -1.351,-7.286 -3.813,-10.066 z m -11.386,22.995 c -7.129,0 -12.932,-5.8 -12.932,-12.929 0,-3.303 1.247,-6.445 3.508,-8.849 l 0.306,-0.329 0,-51.969 c 0,-5.025 4.091,-9.113 9.118,-9.113 5.027,0 9.118,4.088 9.118,9.113 l 0,51.969 0.306,0.329 c 2.261,2.403 3.509,5.546 3.509,8.849 0,7.13 -5.803,12.929 -12.933,12.929 z"
       id="path6"
       inkscape:connector-curvature="0"
       style="fill:#1c2b36;fill-opacity:1" /><path
       d="m 261.902,277.618 0,-51.674 -11.646,0 0,51.547 c -2.22,1.721 -3.653,4.412 -3.653,7.432 0,5.185 4.216,9.399 9.397,9.399 5.181,0 9.396,-4.215 9.396,-9.399 10e-4,-2.948 -1.363,-5.582 -3.494,-7.305 z m -5.903,14.437 c -3.932,0 -7.129,-3.199 -7.129,-7.132 0,-1.579 0.515,-3.038 1.386,-4.22 0,0 0,0 0,-10e-4 l 2.266,-2.002 c 0,0 0,0 0,0 l 0,0 0,-2.508 0,-47.982 7.111,0 0,48.048 0,2.532 0,10e-4 c 0.789,0.47 1.481,1.087 2.038,1.814 0.08,0.104 0.156,0.21 0.229,0.318 0.773,1.141 1.228,2.518 1.228,3.998 0.001,3.935 -3.196,7.134 -7.129,7.134 z"
       id="path8"
       inkscape:connector-curvature="0"
       style="fill:#1c2b36;fill-opacity:1" /></g></svg>