<svg xmlns="http://www.w3.org/2000/svg" xmlns:xlink="http://www.w3.org/1999/xlink" version="1.1" x="0px" y="0px" viewBox="206 206 100 125" enable-background="new 206 206 100 100" xml:space="preserve"><g><path d="M267.385,274.599v-51.08c0-6.277-5.109-11.381-11.386-11.381c-6.277,0-11.385,5.104-11.385,11.381v51.08   c-2.462,2.78-3.814,6.338-3.814,10.066c0,8.38,6.819,15.196,15.199,15.196c8.382,0,15.199-6.816,15.199-15.196   C271.198,280.937,269.847,277.379,267.385,274.599z M255.999,297.594c-7.129,0-12.932-5.8-12.932-12.929   c0-3.303,1.247-6.445,3.508-8.849l0.306-0.329v-51.969c0-5.025,4.091-9.113,9.118-9.113c5.027,0,9.118,4.088,9.118,9.113v51.969   l0.306,0.329c2.261,2.403,3.509,5.546,3.509,8.849C268.932,291.795,263.129,297.594,255.999,297.594z"/><path d="M261.902,277.618v-51.674h-11.646v51.547c-2.22,1.721-3.653,4.412-3.653,7.432c0,5.185,4.216,9.399,9.397,9.399   c5.181,0,9.396-4.215,9.396-9.399C265.397,281.975,264.033,279.341,261.902,277.618z M255.999,292.055   c-3.932,0-7.129-3.199-7.129-7.132c0-1.579,0.515-3.038,1.386-4.22c0,0,0,0,0-0.001l2.266-2.002c0,0,0,0,0,0l0,0v-2.508v-47.982   h7.111v48.048v2.532v0.001c0.789,0.47,1.481,1.087,2.038,1.814c0.08,0.104,0.156,0.21,0.229,0.318   c0.773,1.141,1.228,2.518,1.228,3.998C263.129,288.856,259.932,292.055,255.999,292.055z"/></g></svg>
