<?xml version="1.0" encoding="UTF-8" standalone="no"?>
<svg
   xmlns:dc="http://purl.org/dc/elements/1.1/"
   xmlns:cc="http://creativecommons.org/ns#"
   xmlns:rdf="http://www.w3.org/1999/02/22-rdf-syntax-ns#"
   xmlns:svg="http://www.w3.org/2000/svg"
   xmlns="http://www.w3.org/2000/svg"
   xmlns:sodipodi="http://sodipodi.sourceforge.net/DTD/sodipodi-0.dtd"
   xmlns:inkscape="http://www.inkscape.org/namespaces/inkscape"
   version="1.1"
   x="0px"
   y="0px"
   viewBox="0 0 48 48"
   enable-background="new 0 0 100 100"
   xml:space="preserve"
   id="svg2"
   inkscape:version="0.91 r13725"
   sodipodi:docname="noun_146028.svg"
   width="48"
   height="48"><metadata
     id="metadata12"><rdf:RDF><cc:Work
         rdf:about=""><dc:format>image/svg+xml</dc:format><dc:type
           rdf:resource="http://purl.org/dc/dcmitype/StillImage" /><dc:title></dc:title></cc:Work></rdf:RDF></metadata><defs
     id="defs10" /><sodipodi:namedview
     pagecolor="#ffffff"
     bordercolor="#666666"
     borderopacity="1"
     objecttolerance="10"
     gridtolerance="10"
     guidetolerance="10"
     inkscape:pageopacity="0"
     inkscape:pageshadow="2"
     inkscape:window-width="1215"
     inkscape:window-height="776"
     id="namedview8"
     showgrid="false"
     inkscape:zoom="2.36"
     inkscape:cx="50"
     inkscape:cy="50"
     inkscape:window-x="65"
     inkscape:window-y="24"
     inkscape:window-maximized="1"
     inkscape:current-layer="svg2" /><polygon
     points="5,81.865 5,81.856 5,81.856 "
     id="polygon4"
     transform="matrix(0.53333333,0,0,0.5333281,-2.6666667,-2.660905)"
     style="fill:#1c2b36;fill-opacity:1" /><path
     d="M 47.986133,23.916434 47.872533,23.180975 47.688,22.473782 47.52,22.161252 47.250133,21.920187 16.5824,7.011 0.89173335,13.422137 5e-8,40.9952 l 3.81119995,0 -0.48,-27.351199 0.2554667,-0.09973 7.3125333,10.128434 33.729067,6.297538 0.298666,0.0144 0.283734,-0.0688 0.255466,-0.127999 0.551467,-0.496528 0.4944,-0.539195 0.426133,-0.610661 0.442134,-0.780792 0.272533,-0.66506 0.1632,-0.579194 0.127467,-0.723727 0.05653,-0.737593 -0.01387,-0.738659 z m -36.5328,-8.580183 -0.296,1.175989 -0.2272,1.178121 -0.141866,1.206923 -0.07093,1.204254 0,1.204255 -5.9797329,-8.324718 -0.0032,0.0011 0.00213,-0.0027 0.00107,0.0011 10.0015999,-4.055961 -0.722133,0.979191 -0.6384,1.02239 -0.596267,1.050655 -0.5088,1.090124 -0.437333,1.121589 -0.382934,1.147721 z m 8.2752,-3.205835 -0.6528,0.894391 -0.579733,0.950925 -0.510933,0.99359 -0.426134,1.019723 -0.352533,1.04799 -0.2816,1.078922 -0.198933,1.09279 -0.1136,1.105056 -0.04267,1.121589 0.04267,1.106656 0.127466,1.102389 L 12.2048,22.823645 12.10507,21.704189 12.0624,20.5826 l 0.02827,-1.118922 0.1136,-1.121589 0.184533,-1.107189 0.2368,-1.107189 0.3264,-1.074124 0.397867,-1.050655 0.4544,-1.021857 0.522666,-0.994124 0.596267,-0.948257 0.653333,-0.922658 0.7072,-0.879458 0.752534,-0.823459 4.152,2.058113 -0.7664,0.795192 -0.693334,0.863992 z M 28.8256,15.130386 28.229333,15.83758 27.7088,16.587439 27.226133,17.368232 26.8,18.191691 l -0.354667,0.851724 -0.284266,0.877859 -0.224534,0.893857 -0.156266,0.908791 -0.0848,0.922125 -0.01387,0.918391 0.05653,0.922124 0.127467,0.908258 -4.535467,-0.822926 -0.127466,-1.00799 -0.04,-1.017056 0.01387,-1.02239 0.1184,-1.144523 0.149334,-0.884791 0.253335,-0.990924 0.312,-0.979723 0.397333,-0.937058 0.4544,-0.922124 0.522667,-0.877858 0.581867,-0.835192 0.638933,-0.794659 0.704533,-0.738126 4.1664,2.058113 -0.650133,0.652793 z m 8.390933,3.895962 -0.550933,0.579729 -0.497067,0.623994 -0.437333,0.678926 -0.3552,0.70986 -0.295467,0.751993 -0.2128,0.766925 -0.1424,0.793059 -0.05653,0.794658 0.01387,0.795193 0.09973,0.794126 0.184533,0.778658 -4.534933,-0.820792 -0.156267,-0.823458 -0.0848,-0.823459 -0.0144,-0.837324 0.05653,-0.834659 0.127466,-0.823459 0.185067,-0.820792 0.2672,-0.794658 0.3264,-0.766927 0.383467,-0.735993 0.451733,-0.709859 0.5088,-0.652793 0.567467,-0.624528 0.608,-0.567994 4.168533,2.058113 -0.610667,0.511461 z m 8.0224,3.915696 -0.4256,0.653327 -0.3552,0.693326 -0.283733,0.723727 -0.196267,0.766925 -0.110933,0.766393 -0.0288,0.778125 0.05653,0.778659 0.139734,0.766926 -4.521067,-0.823458 -0.1824,-0.678927 -0.1136,-0.707193 -0.0288,-0.69546 0.0288,-0.70986 0.09973,-0.69546 0.184534,-0.681593 0.236266,-0.66186 0.312534,-0.638927 0.369066,-0.596261 0.44,-0.553594 0.479467,-0.510929 0.539733,-0.468262 0,-0.0027 3.8544,1.902382 -0.4944,0.594661 z"
     id="path6"
     inkscape:connector-curvature="0"
     style="fill:#1c2b36;fill-opacity:1" /></svg>