<svg xmlns="http://www.w3.org/2000/svg" viewBox="0 0 58 72.5" x="0px" y="0px"><title>Wind power</title><g><path d="M44.17,30H8a1,1,0,0,1,0-2H44.17a1,1,0,0,1,0,2Z"/><path d="M28.61,25.72H10.22a1,1,0,0,1,0-2H28.61a1,1,0,0,1,0,2Z"/><path d="M31.72,34.28H10.22a1,1,0,0,1,0-2h21.5a1,1,0,0,1,0,2Z"/><path d="M44.17,30a1,1,0,0,1,0-2,4.83,4.83,0,1,0-4.83-4.83,1,1,0,1,1-2,0A6.83,6.83,0,1,1,44.17,30Z"/><path d="M28.61,25.72a1,1,0,1,1,0-2,4.83,4.83,0,1,0-4.83-4.83,1,1,0,1,1-2,0,6.83,6.83,0,1,1,6.83,6.83Z"/><path d="M31.72,45.94a6.84,6.84,0,0,1-6.83-6.83,1,1,0,0,1,2,0,4.83,4.83,0,1,0,4.83-4.83,1,1,0,0,1,0-2,6.83,6.83,0,1,1,0,13.67Z"/></g></svg>
